<svg xmlns="http://www.w3.org/2000/svg" xmlns:xlink="http://www.w3.org/1999/xlink" width="50" height="50" viewBox="0 0 50 50">
  <defs>
    <clipPath id="clip-path">
      <rect id="Прямоугольник_13" data-name="Прямоугольник 13" width="28" height="28" transform="translate(434 234)" fill="#fff" stroke="#707070" stroke-width="1"/>
    </clipPath>
  </defs>
  <g id="Сгруппировать_171" data-name="Сгруппировать 171" transform="translate(-423 -223)">
    <circle id="Эллипс_6" data-name="Эллипс 6" cx="25" cy="25" r="25" transform="translate(423 223)" fill="#5ac8fa"/>
    <g id="Группа_масок_151" data-name="Группа масок 151" clip-path="url(#clip-path)">
      <g id="tap" transform="translate(434 234)">
        <path id="Контур_19" data-name="Контур 19" d="M23.182,7.891H11.92L11.927,5.9c0-.517.281-1.075.736-1.075H22.983A.824.824,0,0,0,23.806,4,3.977,3.977,0,0,0,19.834.025H7.481A5.18,5.18,0,0,0,2.472,5.369c-.021,4.281.06.934-.453,17.055A2.8,2.8,0,0,0,0,25.11v1.982a.824.824,0,0,0,.824.824H13.958a.824.824,0,0,0,.824-.824V25.11a2.8,2.8,0,0,0-2.025-2.687l-.23-6.581a.958.958,0,0,1,.958-.992h6.571v2.324a.824.824,0,0,0,.824.824h4.513a.824.824,0,0,0,.824-.824V14.85h.961A.824.824,0,0,0,28,14.026V12.708a4.823,4.823,0,0,0-4.818-4.818ZM7.481,1.673H19.834a2.329,2.329,0,0,1,2.174,1.5H12.663A2.552,2.552,0,0,0,10.28,5.893l-.007,2H4.107L4.12,5.373a3.547,3.547,0,0,1,3.362-3.7ZM13.134,25.11v1.158H1.648V25.11A1.15,1.15,0,0,1,2.8,23.961h9.189a1.15,1.15,0,0,1,1.149,1.149Zm11.434-8.76H21.7v-1.5h2.865ZM26.352,13.2H13.485a2.6,2.6,0,0,0-2.6,2.7l.224,6.415H3.671L4.078,9.538h19.1a3.174,3.174,0,0,1,3.17,3.17Z" fill="#fff"/>
        <path id="Контур_20" data-name="Контур 20" d="M23.793,20.462a.824.824,0,0,0-1.316,0c-.745.989-2.317,3.273-2.317,4.538a2.975,2.975,0,1,0,5.95,0c0-1.263-1.581-3.561-2.317-4.538Zm-.658,5.865A1.329,1.329,0,0,1,21.808,25a7.97,7.97,0,0,1,1.328-2.617A7.954,7.954,0,0,1,24.463,25,1.329,1.329,0,0,1,23.136,26.327Z" fill="#fff"/>
      </g>
    </g>
  </g>
</svg>
