<svg xmlns="http://www.w3.org/2000/svg" xmlns:xlink="http://www.w3.org/1999/xlink" width="50" height="50" viewBox="0 0 50 50">
  <defs>
    <clipPath id="clip-path">
      <rect id="Прямоугольник_12" data-name="Прямоугольник 12" width="28" height="28" transform="translate(434 160)" fill="#fff" stroke="#707070" stroke-width="1"/>
    </clipPath>
  </defs>
  <g id="Сгруппировать_173" data-name="Сгруппировать 173" transform="translate(-423 -149)">
    <path id="Контур_24" data-name="Контур 24" d="M25,0A25,25,0,1,1,0,25,25,25,0,0,1,25,0Z" transform="translate(423 149)" fill="#4cd964"/>
    <g id="Группа_масок_150" data-name="Группа масок 150" clip-path="url(#clip-path)">
      <path id="Контур_18" data-name="Контур 18" d="M21.93,14.524V0H4.977V28h7.656V26.359h7.656V28H21.93V23.272l.661-1.322a4.122,4.122,0,0,0,.433-1.834V16.57A2.466,2.466,0,0,0,21.93,14.524ZM6.617,1.641H20.289V3.281H6.617Zm0,3.281H20.289v9.026L15.914,12.77V8.531a2.461,2.461,0,0,0-4.922,0V13.6a3.56,3.56,0,0,0-2.734,3.458v1.922a4.075,4.075,0,0,0,1.2,2.9l.1.1H6.617Zm4.375,21.438H6.617V23.625h4.375Zm10.391-6.243a2.475,2.475,0,0,1-.26,1.1l-.834,1.668v1.834H12.633v-1.98l-2.014-2.014a2.445,2.445,0,0,1-.721-1.74V17.063a1.916,1.916,0,0,1,1.094-1.729v3.042h1.641V8.531a.82.82,0,0,1,1.641,0v5.5l6.5,1.751a.822.822,0,0,1,.607.792Z" transform="translate(434 160)" fill="#fff"/>
    </g>
  </g>
</svg>
