<?xml version="1.0" encoding="UTF-8"?>
<!DOCTYPE svg PUBLIC "-//W3C//DTD SVG 1.1//EN" "http://www.w3.org/Graphics/SVG/1.1/DTD/svg11.dtd">
<!-- Creator: CorelDRAW -->
<svg xmlns="http://www.w3.org/2000/svg" xml:space="preserve" width="100%" height="100%" style="shape-rendering:geometricPrecision; text-rendering:geometricPrecision; image-rendering:optimizeQuality; fill-rule:evenodd; clip-rule:evenodd"
viewBox="0 0 21 29.7"
 xmlns:xlink="http://www.w3.org/1999/xlink">
 <defs>
  <style type="text/css">
   <![CDATA[
    .str0 {stroke:#1F1A17;stroke-width:0.00762}
    .fil4 {fill:#0A1013}
    .fil5 {fill:#2E88B0}
    .fil3 {fill:#546774}
    .fil2 {fill:#7B858E}
    .fil1 {fill:#BAB0AF}
    .fil6 {fill:#BD3424}
    .fil8 {fill:#E2D83B}
    .fil7 {fill:white}
    .fil0 {fill:url(#id0)}
   ]]>
  </style>
  <linearGradient id="id0" gradientUnits="userSpaceOnUse" x1="3.3951" y1="5.51137" x2="16.8521" y2="23.1447">
   <stop offset="0" style="stop-color:white"/>
   <stop offset="0.509804" style="stop-color:#F8EAD7"/>
   <stop offset="1" style="stop-color:#F1D4AE"/>
  </linearGradient>
 </defs>
 <g id="Слой_x0020_1">
  <metadata id="CorelCorpID_0Corel-Layer"/>
  <path class="fil0 str0" d="M2.13215 3.3889l15.983 0c1.68586,0 3.06519,1.47678 3.06519,3.28174l0 15.3148c0,1.80496 -1.37933,3.28174 -3.06519,3.28174l-15.9831 0c-1.68586,0 -3.06519,-1.47678 -3.06519,-3.28174l0 -15.3147c0,-1.80502 1.37938,-3.28185 3.0653,-3.28185z"/>
  <path class="fil1" d="M12.9121 8.28391c-0.01178,0.01178 0.01616,0.0103 0.01762,0.00884 0.01177,-0.01177 -0.01617,-0.01029 -0.01762,-0.00884z"/>
  <path class="fil2" d="M12.965 8.28391c-0.01177,0.01178 0.01617,0.0103 0.01762,0.00884 0.01178,-0.01177 -0.01616,-0.01029 -0.01762,-0.00884z"/>
  <path class="fil3" d="M13.0003 8.2751c0.06914,0.02906 0.13666,0.02628 0.21167,0.02646 -0.06914,-0.02905 -0.13663,-0.02627 -0.21167,-0.02646z"/>
  <polygon class="fil1" points="12.7622,8.30156 12.7887,8.32802 "/>
  <polygon class="fil2" points="12.7887,8.30156 12.8151,8.32802 "/>
  <path class="fil4" d="M11.9155 9.01594c0.23268,0.04569 0.45215,-0.02056 0.68792,-0.02503 0.15168,-0.00286 0.29689,0.05072 0.44979,0.05146 0.19227,0.00093 0.40399,-0.0267 0.5797,0.06826 0.26863,0.14518 0.45368,0.56423 0.59904,0.81907 0.55298,0.96949 0.78833,2.08077 0.64268,3.18728 -0.01892,0.14364 -0.07165,0.28035 -0.0938,0.42333 -0.03826,0.24728 -0.04167,0.49332 -0.06524,0.74084 -0.02088,0.21955 -0.05377,0.45093 0.03807,0.6604 0.12163,0.27746 0.50443,0.31361 0.71755,0.12025 0.11425,-0.10366 0.1678,-0.27728 0.28945,-0.36769 0.11145,-0.08282 0.18624,0.01135 0.20297,0.1162 0.3361,3e-005 0.67204,0.05879 1.00541,0.0983 0.37693,0.04463 0.75986,0.07217 1.13771,0.10887 0.41767,0.04059 0.85881,-0.02087 1.27,0.05742 0.20926,0.03984 0.42336,0.05439 0.635,0.07487 0.15865,0.01535 0.29054,0.00344 0.37042,0.16325 0.18243,-0.08993 0.26522,-0.39076 0.07342,-0.52525 -0.12245,-0.08588 -0.3026,-0.05683 -0.44384,-0.05683l0.02646 -0.13229c-0.22188,0.02619 -0.44103,-0.01675 -0.66146,-0.04546 -0.28202,-0.03675 -0.56462,-0.06911 -0.84667,-0.10583 -0.90503,-0.1179 -1.82634,-0.19574 -2.72518,-0.35391 -0.12673,-0.0223 -0.16399,-0.11882 -0.26802,-0.17441 -0.0925,-0.04943 -0.21286,-0.03477 -0.31409,-0.03477 0.09501,-0.46135 0.25403,-0.93006 0.28866,-1.40229 0.01998,-0.27273 0.03771,-0.60375 -0.00989,-0.87313 -0.03879,-0.21952 -0.12396,-0.42198 -0.18243,-0.635 -0.07266,-0.26469 -0.1287,-0.5408 -0.23757,-0.79375 -0.04173,-0.09694 -0.11078,-0.17743 -0.15439,-0.27215 -0.05805,-0.1261 -0.08567,-0.265 -0.15181,-0.3893 -0.08496,-0.15965 -0.21686,-0.30904 -0.32989,-0.4498 -0.4559,-0.56782 -1.18279,-0.91373 -1.89497,-0.68357 -0.30147,0.09744 -0.61582,0.27612 -0.635,0.63066z"/>
  <polygon class="fil3" points="13.2914,8.30156 13.3178,8.32802 "/>
  <path class="fil1" d="M13.3178 8.30156l0.02646 0.02646 -0.02646 -0.02646m-0.66146 0.02646l0.02646 0.02646 -0.02646 -0.02646z"/>
  <path class="fil3" d="M12.6828 8.32802l0.02646 0.02646 -0.02646 -0.02646m0.68792 0l0.02646 0.02646 -0.02646 -0.02646z"/>
  <polygon class="fil1" points="13.3972,8.32802 13.4237,8.35448 "/>
  <polygon class="fil3" points="13.4237,8.35448 13.4501,8.38094 "/>
  <path class="fil1" d="M13.4501 8.35448l0.02646 0.02646 -0.02646 -0.02646m-0.9525 0.02646l0.02646 0.02646 -0.02646 -0.02646z"/>
  <path class="fil3" d="M12.5241 8.38094l0.02646 0.02646 -0.02646 -0.02646m0.9525 0l0.02646 0.02646 -0.02646 -0.02646z"/>
  <polygon class="fil1" points="13.503,8.38094 13.5295,8.4074 "/>
  <polygon class="fil2" points="12.4182,8.4074 12.4447,8.43385 "/>
  <polygon class="fil3" points="13.5559,8.4074 13.5824,8.43385 "/>
  <polygon class="fil2" points="12.3389,8.43385 12.3653,8.46031 "/>
  <polygon class="fil3" points="13.6089,8.43385 13.6353,8.46031 "/>
  <polygon class="fil1" points="13.6353,8.43385 13.6618,8.46031 "/>
  <path class="fil3" d="M12.2859 8.46031l0.02646 0.02646 -0.02646 -0.02646m1.37583 0l0.02646 0.02646 -0.02646 -0.02646z"/>
  <polygon class="fil2" points="12.233,8.48677 12.2595,8.51323 "/>
  <polygon class="fil3" points="13.7147,8.48677 13.7412,8.51323 "/>
  <polygon class="fil1" points="13.7412,8.48677 13.7676,8.51323 "/>
  <polygon class="fil3" points="12.2066,8.51323 12.233,8.53969 "/>
  <polygon class="fil2" points="13.7941,8.51323 13.8205,8.53969 "/>
  <path class="fil1" d="M12.1537 8.53969l0.02645 0.02646 -0.02645 -0.02646m1.69333 0l0.02646 0.02646 -0.02646 -0.02646z"/>
  <path class="fil3" d="M12.1272 8.56615l0.02646 0.02645 -0.02646 -0.02645m1.74625 0l0.02646 0.02645 -0.02646 -0.02645m-1.77271 0.02645l0.02646 0.02646 -0.02646 -0.02646z"/>
  <polygon class="fil2" points="13.9263,8.5926 13.9528,8.61906 "/>
  <path class="fil3" d="M12.0743 8.61906l0.02646 0.02646 -0.02646 -0.02646m1.87854 0l0.02646 0.02646 -0.02646 -0.02646m-1.905 0.02646l0.02646 0.02646 -0.02646 -0.02646z"/>
  <polygon class="fil2" points="14.0057,8.64552 14.0322,8.67198 "/>
  <polygon class="fil1" points="12.0214,8.67198 12.0478,8.69844 "/>
  <polygon class="fil3" points="14.0322,8.67198 14.0587,8.69844 "/>
  <path class="fil1" d="M11.9949 8.7249l0.02645 0.02645 -0.02645 -0.02645m2.11666 0l0.02646 0.02645 -0.02646 -0.02645z"/>
  <polygon class="fil2" points="14.138,8.75135 14.1645,8.77781 "/>
  <polygon class="fil3" points="11.9684,8.77781 11.9949,8.80427 "/>
  <polygon class="fil2" points="14.1645,8.77781 14.1909,8.80427 "/>
  <path class="fil3" d="M14.1909 8.80427l0.02646 0.02646 -0.02646 -0.02646m0.02646 0.02646l0.02645 0.02646 -0.02645 -0.02646z"/>
  <polygon class="fil2" points="11.9155,8.85719 11.942,8.88365 "/>
  <path class="fil3" d="M14.2439 8.85719l0.02646 0.02646 -0.02646 -0.02646m0.02646 0.02646l0.02646 0.02645 -0.02646 -0.02645m0.02646 0.02645l0.02646 0.02646 -0.02646 -0.02646z"/>
  <path class="fil2" d="M14.3232 8.93656l0.02646 0.02646 -0.02646 -0.02646m0.02646 0.02646l0.02646 0.02646 -0.02646 -0.02646z"/>
  <path class="fil5" d="M9.69302 12.5614l0.18521 0c-0.14124,0.19402 -0.43349,0.2339 -0.66146,0.26459 -0.04752,0.29641 -0.45088,0.27498 -0.68792,0.33139 -0.10054,0.02392 -0.19423,0.07173 -0.29104,0.10686 -0.13115,0.0476 -0.26246,0.05287 -0.39687,0.08218 -0.15103,0.03294 -0.29925,0.08869 -0.44979,0.12631 -0.41532,0.10388 -0.82521,0.18418 -1.24355,0.27046 -0.28919,0.05964 -0.60409,0.14923 -0.89958,0.16063 -0.15584,0.00601 -0.31861,-0.0195 -0.47625,-0.0195 0,0.37661 0.06197,0.73745 0.07834,1.11125 0.01628,0.37208 -0.02362,0.74131 -0.0254,1.11125 -0.00082,0.16838 -0.02741,0.33536 -0.02627,0.50271 0.00056,0.08041 0.00564,0.15597 0.08308,0.19846 0.10152,0.0557 0.35047,0.15965 0.45955,0.09173 0.07311,-0.0455 0.08838,-0.13676 0.11722,-0.21082 0.04934,-0.12676 0.11694,-0.2504 0.18084,-0.37041 0.21444,-0.40275 0.4885,-0.77968 0.93181,-0.93803 0.38946,-0.13912 0.77742,-0.29162 1.19062,-0.35049 0.29877,-0.04257 0.62439,-0.00794 0.92604,-0.00794 0.3523,0 0.69131,-0.01323 1.0295,0.10488 0.26956,0.09411 0.36433,0.42701 0.63738,0.50366 -0.01683,-0.21307 -0.02646,-0.42063 -0.02646,-0.635 -0.15176,-0.02413 -0.27588,-0.1166 -0.22968,-0.28948 0.03616,-0.13541 0.21026,-0.07054 0.24773,-0.1928 0.03741,-0.12205 0.00841,-0.29036 0.00841,-0.4173l0 -0.87313c0.07287,0.12637 0.07638,0.25548 0.09932,0.39688 0.05424,0.33454 0.05837,0.64256 0.03535,0.97896 -0.03159,0.46093 -0.01717,0.94535 0.04308,1.40229 0.02468,0.18703 0.09567,0.34904 0.14647,0.52916 0.03376,0.11978 0.04985,0.2626 0.14245,0.35526 0.13915,0.13928 0.42008,0.05017 0.59166,0.04265 0.14955,-0.00653 0.30062,0.00868 0.44979,-0.00553 0.30041,-0.0286 0.60016,-0.10295 0.89959,-0.12541 0.19209,-0.01439 0.48381,-0.07871 0.52157,-0.31234 0.02667,-0.16497 0.00572,-0.34367 0.0077,-0.51025 0.00191,-0.16023 0.04305,-0.31671 0.05006,-0.47625 0.00392,-0.08914 -0.02289,-0.17566 -0.01818,-0.26458 0.01514,-0.28538 0.14566,-0.55764 0.15283,-0.84667 0.01092,-0.43857 -0.05927,-0.88702 -0.10094,-1.32292 -0.04726,-0.49411 -0.07951,-0.98957 -0.13219,-1.48166 -0.05646,-0.52719 -0.08218,-1.05979 -0.1324,-1.5875 -0.01746,-0.18331 0.0068,-0.37651 -0.0481,-0.55563 -0.05612,-0.18314 -0.24707,-0.27495 -0.30035,-0.44979 -0.67932,0 -1.32853,0.17962 -2.01084,0.15761 -0.19073,-0.00616 -0.36679,-0.09445 -0.55562,-0.10364 -0.57039,-0.02772 -1.14869,-0.00105 -1.71979,-0.00105 -0.77759,0 -1.55665,-0.01321 -2.32834,0.09059 -0.55393,0.07453 -1.11672,0.11139 -1.66687,0.21167 -0.17894,0.03262 -0.50811,0.13464 -0.35833,0.37962 0.09041,0.14788 0.28329,0.04135 0.41125,0.01834 0.33432,-0.06017 0.6932,-0.03911 1.03187,-0.06287 0.15105,-0.01058 0.29954,-0.04741 0.44979,-0.05424 0.24636,-0.01116 0.49477,0.01355 0.74084,-0.00339 0.23907,-0.01648 0.474,-0.06545 0.71437,-0.07598 0.52144,-0.02284 1.04042,0.02542 1.56104,0.02542 0.27218,0 0.52689,-0.01312 0.79375,0.02477 0.16574,0.02352 0.3673,0.084 0.45792,0.24021 0.04196,0.07237 0.0205,0.15857 0.01873,0.23773 -0.00453,0.20085 -0.02553,0.38645 -0.07088,0.58208 -0.0784,0.33804 -0.10168,0.70737 -0.22945,1.03188 -0.07313,0.18566 -0.22005,0.34113 -0.28697,0.52917 -0.03786,0.10641 -0.02164,0.2327 -0.02164,0.34395z"/>
  <polygon class="fil2" points="14.3762,8.98948 14.4026,9.01594 "/>
  <path class="fil6" d="M12.7622 9.01594c0.05569,0.17333 0.24445,0.26739 0.30035,0.44979 0.07991,0.26075 0.0522,0.57634 0.07245,0.84667 0.03159,0.42179 0.07479,0.84634 0.10583,1.27 0.07522,1.02618 0.30591,2.09692 0.18418,3.12208 -0.01929,0.1624 -0.08036,0.31369 -0.09959,0.47625 -0.01278,0.10803 0.01883,0.21037 0.01333,0.3175 -0.01101,0.2137 -0.04739,0.41955 -0.04739,0.635 0,0.1847 -0.05569,0.41365 0.16735,0.48924 0.14849,0.05032 0.34277,0.0059 0.49411,-0.00849 0.24535,-0.02337 0.49451,-0.02395 0.74084,-0.03614 0.12877,-0.00638 0.29633,0.03688 0.36557,-0.10872 0.03704,-0.07787 -0.00714,-0.15656 -0.03408,-0.23006 -0.06104,-0.16637 -0.17888,-0.31128 -0.23355,-0.47625 -0.05122,-0.15462 0.00363,-0.27844 0.16664,-0.29104l0 0.42333c0.04964,-0.11829 0.02646,-0.26942 0.02646,-0.39687 0.09882,0.00082 0.19328,0.0141 0.29104,0.02646 0.06157,-0.09507 0.16579,-0.07215 0.25654,-0.1315 0.09258,-0.06051 0.13711,-0.16793 0.21971,-0.23892 -0.11581,-0.03696 -0.19047,-0.0436 -0.18521,-0.18521 -0.09369,0.06864 -0.18039,0.16513 -0.29554,0.19857 -0.31655,0.09189 -0.54171,-0.17534 -0.57298,-0.46315 -0.01564,-0.1437 0.00974,-0.28101 0.0195,-0.42333 0.0164,-0.23964 0.02619,-0.47586 0.0631,-0.71438 0.04538,-0.29313 0.12809,-0.57444 0.14857,-0.87312 0.06593,-0.96309 -0.23945,-1.95131 -0.69745,-2.78607 -0.07736,-0.14099 -0.16875,-0.26418 -0.25175,-0.40055 -0.08562,-0.1407 -0.17375,-0.31234 -0.32305,-0.3964 -0.23863,-0.13433 -0.62696,-0.07353 -0.89498,-0.09469z"/>
  <path class="fil2" d="M14.4026 9.01594l0.02646 0.02646 -0.02646 -0.02646m0.02646 0.02646l0.02646 0.02645 -0.02646 -0.02645m0.02646 0.02645l0.02646 0.02646 -0.02646 -0.02646z"/>
  <polygon class="fil3" points="14.482,9.12177 14.5084,9.14823 "/>
  <polygon class="fil1" points="14.5084,9.14823 14.5349,9.17469 "/>
  <polygon class="fil3" points="14.5084,9.17469 14.5349,9.20115 "/>
  <polygon class="fil3" points="14.5614,9.25406 14.5878,9.28052 "/>
  <path class="fil6" d="M14.6143 9.28052c0.12031,0.21611 0.2091,0.4281 0.31292,0.65024 0.04882,0.10441 0.12243,0.1936 0.16526,0.30226 0.10155,0.25755 0.15608,0.52896 0.23389,0.79375 0.05972,0.20328 0.13806,0.39812 0.17524,0.60854 0.04482,0.25358 0.0287,0.56349 0.00989,0.82021 -0.03545,0.48353 -0.23048,0.95163 -0.28866,1.42875 0.08644,5e-005 0.18196,-0.00852 0.26411,0.02363 0.08255,0.0323 0.12009,0.10914 0.19254,0.15319 0.07239,0.044 0.17557,0.04316 0.25773,0.05384 0.93511,0.1219 1.87044,0.23398 2.80458,0.36264 0.29059,0.04001 0.58253,0.06985 0.87313,0.10986 0.14269,0.01966 0.31665,0.06527 0.44873,-0.0136 0.09065,-0.05414 0.1475,-0.15357 0.2036,-0.23977 0.15999,-0.24582 0.28815,-0.55189 0.31567,-0.84666 0.00741,-0.07959 -0.02201,-0.15823 -0.01119,-0.23763 0.0146,-0.10729 0.10853,-0.14568 0.17804,-0.21558 0.07675,-0.07715 0.1243,-0.17804 0.12938,-0.28763 0.00897,-0.19222 -0.20519,-0.29924 -0.26175,-0.47625 -0.04236,-0.13247 -0.03414,-0.26432 -0.06581,-0.39687 -0.1066,-0.44641 -0.29024,-0.91977 -0.60134,-1.26765 -0.27302,-0.30527 -0.72893,-0.62053 -1.12908,-0.72305 -0.29618,-0.07591 -0.62315,-0.08647 -0.92605,-0.13325 -0.62666,-0.09673 -1.25145,-0.2024 -1.87854,-0.29133 -0.25402,-0.03601 -0.51509,-0.05728 -0.76729,-0.10475 -0.19878,-0.03738 -0.43357,-0.11652 -0.635,-0.07289z"/>
  <path class="fil4" d="M3.55469 12.6937l-0.02646 -0.10584c-0.02754,0.06303 -0.02985,0.14317 -0.08779,0.18897 -0.07477,0.05911 -0.19397,0.05167 -0.28263,0.07665 -0.24627,0.0694 -0.49239,0.13541 -0.74083,0.19674 -0.59635,0.14716 -1.18967,0.28546 -1.77271,0.48152 -0.19598,0.06588 -0.52583,0.12813 -0.6509,0.30252 -0.19311,0.26924 -0.11639,0.68861 -0.11639,1.00256 0.12306,-0.29329 -0.10907,-0.69961 0.22632,-0.91802 0.14627,-0.09525 0.42327,-0.02395 0.59389,-0.05575 0.21468,-0.04003 0.41874,-0.02109 0.635,-0.02397 0.31965,-0.00426 0.63386,-0.00313 0.9525,0.01325 0.27559,0.01416 0.56808,-0.02093 0.84666,-0.02093 0.27718,0 0.67649,-0.07072 0.89805,0.13611 0.16362,0.15274 0.17471,0.39756 0.20199,0.60473 0.05847,0.44413 0.01775,0.93115 -0.01286,1.37583 -0.01344,0.19484 0.0154,0.44559 -0.03726,0.63212 -0.0269,0.09533 -0.11752,0.10557 -0.20325,0.10832 -0.14795,0.00471 -0.3011,0.00254 -0.43741,0.07125 -0.10255,0.0517 -0.14166,0.17883 -0.25297,0.21217 -0.17372,0.05199 -0.37436,0.03447 -0.55316,0.03447 -0.42617,0 -0.84283,-0.05291 -1.27,-0.05291l-0.47625 0c-0.07426,-0.00013 -0.16465,0.00979 -0.23078,-0.03117 -0.07422,-0.04598 -0.11001,-0.15579 -0.13964,-0.23342 -0.25291,-0.01995 -0.61865,-0.00314 -0.74083,-0.26458 -0.16415,0.09959 -0.24086,0.33102 -0.30931,0.50271 -0.08862,0.22228 -0.05193,0.45469 -0.06215,0.68792 -0.017,0.38822 -0.02542,0.77438 -0.02542,1.16416 0.15898,0.01254 0.31749,0.033 0.47625,0.04842 0.07094,0.00691 0.16674,-0.00849 0.22216,0.04691 0.07012,0.07012 0.03868,0.21228 0.0448,0.30155 0.01545,0.22571 0.02603,0.46437 0.05553,0.68791 0.01815,0.13764 0.09802,0.26866 0.1484,0.39688 0.14891,0.37899 0.32506,0.61738 0.64036,0.87961 0.14092,0.11721 0.31746,0.24418 0.50271,0.27585 0.11487,0.01961 0.22906,-0.01455 0.34396,-0.01736 0.3139,-0.00769 0.58312,-0.04061 0.88059,-0.14009 0.07194,-0.02408 0.14324,-0.03188 0.20756,-0.07588 0.17688,-0.12105 0.35108,-0.37516 0.48559,-0.54415 0.11592,-0.14562 0.17561,-0.36581 0.24641,-0.53713 0.06794,-0.16436 0.09461,-0.28768 0.29652,-0.29051 0.22823,-0.00318 0.46037,0.03485 0.68791,0.05043 0.36108,0.02471 0.72367,0.02818 1.0848,0.05292 0.16832,0.01151 0.3344,0.00796 0.5027,0.02431 0.06734,0.00656 0.14531,-0.00415 0.20604,0.0317 0.09405,0.05551 0.13252,0.19291 0.16361,0.2903 0.06872,0.21505 0.10459,0.46114 0.21011,0.66146 0.2984,0.56658 0.73729,0.8736 1.37816,0.89852 0.12097,0.00471 0.22609,-0.03286 0.34396,-0.04699 0.14676,-0.01757 0.28064,-0.00965 0.42333,-0.06014 0.32523,-0.11512 0.66453,-0.38221 0.83714,-0.68556 0.09263,-0.16274 0.13505,-0.35478 0.20077,-0.52917 0.07649,-0.2029 0.16536,-0.39716 0.21945,-0.60854 0.0422,-0.16502 0.07998,-0.35877 0.08516,-0.52916 0.00217,-0.07216 -0.0323,-0.16256 0.02321,-0.22255 0.09091,-0.09823 0.31176,-0.06598 0.43344,-0.09495 0.04567,0.19267 0.1361,0.37316 0.21137,0.55562 0.06345,0.15375 0.11243,0.31536 0.21313,0.44979 0.07093,0.0947 0.15092,0.19553 0.26342,0.24133 0.37687,0.15348 0.80092,0.02855 1.19062,0.08411 0.31972,0.04559 0.8092,0.20899 1.11125,0.02545 0.34076,-0.20709 0.58687,-0.58663 0.7116,-0.95943 0.04254,-0.12713 0.04556,-0.26667 0.08215,-0.39687 0.15663,0.07093 0.25427,0.22132 0.39688,0.31789 0.27355,0.18518 0.67236,0.21918 0.97895,0.08856 0.27218,-0.11597 0.37907,-0.46892 0.68792,-0.48583 0,0.60627 0.13536,1.45812 0.76729,1.72305 0.40728,0.17076 0.84249,0.11136 1.27,0.13007 0.28644,0.01254 0.56076,-0.00601 0.84667,-0.04678 0.13689,-0.01953 0.30281,-0.03778 0.41484,-0.12848 0.11501,-0.09314 0.18822,-0.25194 0.25315,-0.3814 0.09777,-0.19487 0.20553,-0.39725 0.26371,-0.60854 0.04165,-0.15119 0.04181,-0.32084 0.07372,-0.47625l0.29104 0c0,-0.18558 0.0332,-0.37105 0.02542,-0.55563 -0.01031,-0.24466 -0.05855,-0.49609 -0.05074,-0.74083 0.01317,-0.41283 0.10903,-0.83309 -0.00268,-1.24354 -0.04524,-0.16621 -0.17065,-0.32679 -0.25561,-0.47625 -0.12374,-0.21768 -0.23582,-0.503 -0.43537,-0.66212 -0.17015,-0.13573 -0.37145,-0.18262 -0.57748,-0.23411 -0.57198,-0.14298 -1.16324,-0.05823 -1.74625,-0.08376 -0.62352,-0.02731 -1.22582,-0.15023 -1.85208,-0.07424 -0.07419,0.00899 -0.1669,0.01383 -0.2322,0.05341 -0.06977,0.04231 -0.09957,0.12679 -0.15695,0.18251 -0.08615,0.08361 -0.18357,0.10123 -0.29877,0.10393 0.04617,0.14047 0.36245,0.20879 0.50271,0.20818 0.12091,-0.00053 0.27305,-0.01823 0.30858,0.13806 0.024,0.10562 -0.05276,0.18153 -0.14996,0.20201 -0.19696,0.04154 -0.43384,0.0077 -0.63487,0.00738 -0.08221,-0.00013 -0.18386,0.01013 -0.2572,-0.03487 -0.13767,-0.08449 -0.08676,-0.35775 -0.08676,-0.4943 -0.18447,0.00614 -0.22236,0.15015 -0.16664,0.3175 0.06014,0.18061 0.45816,0.62481 0.15868,0.76854 -0.11938,0.05728 -0.36053,0.02368 -0.49475,0.02532 -0.29779,0.00365 -0.60121,0.07421 -0.89919,0.05135 -0.083,-0.00635 -0.14496,-0.07953 -0.22066,-0.08249 -0.13917,-0.00543 -0.27554,0.19605 -0.41576,0.23164 -0.08523,0.02161 -0.1768,0.00815 -0.26356,0.02333 -0.40584,0.07104 -0.8051,0.11523 -1.21708,0.12013 -0.16526,0.00195 -0.36917,0.07188 -0.52803,0.00365 -0.09914,-0.04258 -0.14996,-0.14523 -0.18367,-0.24189 -0.0794,-0.2277 -0.16383,-0.4755 -0.19534,-0.71437 -0.05742,-0.43537 -0.06366,-0.88358 -0.04443,-1.32292 0.02032,-0.4636 0.05998,-0.98322 -0.10686,-1.42875 -0.06181,0.1473 -0.01291,0.32224 -0.00238,0.47625 0.01103,0.16108 -0.02207,0.31623 -0.02398,0.47625 -0.00267,0.22368 0.04072,0.41659 -0.23823,0.42334 0,0.08929 -0.03101,0.25365 0.0272,0.328 0.0526,0.0672 0.15566,0.03561 0.19497,0.1257 0.07224,0.16561 0.01927,0.44797 0.04242,0.63109 -0.24141,-0.13597 -0.35468,-0.4399 -0.61608,-0.54766 -0.35034,-0.14441 -0.73412,-0.1138 -1.10371,-0.1138 -0.30166,0 -0.62728,-0.03463 -0.92605,0.00794 -0.34528,0.04921 -0.65569,0.16859 -0.97895,0.2881 -0.18352,0.06787 -0.35986,0.11375 -0.52917,0.21905 -0.33367,0.20754 -0.55369,0.67628 -0.72081,1.01949 -0.06215,0.12764 -0.09554,0.37971 -0.285,0.35518 -0.13137,-0.01701 -0.38307,-0.08856 -0.43334,-0.22339 -0.03114,-0.08353 0.00206,-0.17888 0.00802,-0.26408 0.01365,-0.19468 0.02884,-0.38658 0.02884,-0.58208 0,-0.3592 0.02217,-0.72644 -0.00238,-1.08479 -0.02032,-0.29689 -0.077,-0.57296 -0.077,-0.87313 1.16123,0 2.29024,-0.34504 3.41313,-0.61161 0.19664,-0.04667 0.38375,-0.13322 0.58208,-0.16986 0.12618,-0.02334 0.30305,-0.0126 0.40973,-0.09536 0.05713,-0.04432 0.06049,-0.11559 0.06652,-0.1815 0.21122,-0.01725 0.56221,-0.05866 0.66146,-0.26459l-0.18521 0c0,-0.10347 -0.0136,-0.21846 0.02164,-0.3175 0.07009,-0.197 0.22815,-0.35742 0.29644,-0.55562 0.11483,-0.33324 0.14079,-0.69125 0.22641,-1.03188 0.04897,-0.19473 0.05646,-0.38269 0.06508,-0.58208 0.00389,-0.08956 0.03493,-0.18216 -0.01738,-0.26344 -0.09916,-0.15405 -0.2949,-0.19072 -0.4599,-0.21794 -0.29781,-0.04919 -0.59473,-0.02133 -0.89958,-0.02133 -0.48538,0 -0.96835,-0.03799 -1.45521,-0.02606 -0.25135,0.00614 -0.49157,0.05945 -0.74083,0.07662 -0.24607,0.01694 -0.49448,-0.00777 -0.74084,0.00339 -0.20126,0.00916 -0.40666,0.05472 -0.60854,0.07385 -0.28011,0.02656 -0.56525,-0.00164 -0.84666,0.03889 -0.09864,0.01421 -0.25263,0.03932 -0.32547,0.11279 -0.06215,0.06271 -0.08609,0.16912 -0.11589,0.24969 -0.07141,0.19314 -0.11109,0.38073 -0.15131,0.58208 -0.13364,0.66921 -0.25993,1.34022 -0.38629,2.01084z"/>
  <path class="fil4" d="M11.2276 9.74299c-0.6518,0.13454 -0.59999,0.98594 -0.63735,1.49545 -0.01101,0.15039 -0.04577,0.29884 -0.05019,0.44979 -0.00664,0.22598 -0.07107,0.48215 0.07609,0.68292 0.07943,0.10837 0.19796,0.11078 0.32041,0.11083 0.25845,0.0001 0.51097,-0.07297 0.76729,-0.07795 0.15119,-0.00293 0.29827,0.04705 0.4498,0.01289 0.13493,-0.03043 0.31403,-0.08906 0.36957,-0.22836 0.06672,-0.16749 0.0273,-0.40249 0.0273,-0.57971l0 -1.16416c0,-0.20934 0.00632,-0.45024 -0.13025,-0.62699 -0.07213,-0.09334 -0.21358,-0.08686 -0.31954,-0.08736 -0.27813,-0.00135 -0.60029,-0.04366 -0.87313,0.01265z"/>
  <polygon class="fil3" points="4.18969,9.80969 4.21615,9.83615 "/>
  <polygon class="fil2" points="4.16323,9.8626 4.18969,9.88906 "/>
  <polygon class="fil3" points="4.13677,9.94198 4.16323,9.96844 "/>
  <path class="fil1" d="M19.0857 9.96844l0.02646 0.02646 -0.02646 -0.02646m-14.9754 0.02646l0.02646 0.02645 -0.02646 -0.02645m15.0548 0.02645l0.02646 0.02646 -0.02646 -0.02646m0.02646 0.02646l0.02646 0.02646 -0.02646 -0.02646z"/>
  <polygon class="fil3" points="4.08385,10.0743 4.11031,10.1007 "/>
  <path class="fil1" d="M19.2445 10.0743l0.02646 0.02646 -0.02646 -0.02646m-15.1871 0.05292l0.02645 0.02646 -0.02645 -0.02646m15.2665 0l0.02646 0.02646 -0.02646 -0.02646z"/>
  <polygon class="fil3" points="4.0574,10.1537 4.08385,10.1801 "/>
  <path class="fil1" d="M19.3768 10.1537l0.02646 0.02645 -0.02646 -0.02645m0.05292 0.02645l0.02646 0.02646 -0.02646 -0.02646z"/>
  <polygon class="fil2" points="4.03094,10.2066 4.0574,10.233 "/>
  <path class="fil7" d="M5.9624 12.3232c0,-0.46678 0.02645,-0.93393 0.02645,-1.40229 0,-0.13941 0.06223,-0.40505 -0.00111,-0.52668 -0.06368,-0.12221 -0.19634,-0.12975 -0.31639,-0.13581 -0.16877,-0.00847 -0.33282,-0.02577 -0.5027,-0.02543 -0.0892,0.00019 -0.1877,-0.00717 -0.25617,0.06133 -0.10126,0.10126 -0.06133,0.31102 -0.06133,0.44138l0 1.13771c0,0.11176 -0.05072,0.39719 0.04609,0.47551 0.08191,0.06627 0.25704,0.01936 0.35078,0.0083 0.23059,-0.02722 0.48212,-0.03386 0.71438,-0.03402z"/>
  <path class="fil1" d="M19.5091 10.233l0.02646 0.02646 -0.02646 -0.02646m-13.6525 0.02646l0.02646 0.02646 -0.02646 -0.02646z"/>
  <polygon class="fil3" points="4.00448,10.2859 4.03094,10.3124 "/>
  <path class="fil7" d="M4.26906 10.2859l-0.39687 2.19604c0.28358,-0.00236 0.56335,-0.07353 0.84666,-0.07938 0,-0.4777 0.02646,-0.95112 0.02646,-1.42875 0,-0.14411 0.05231,-0.41693 -0.0272,-0.54192 -0.09628,-0.15139 -0.2936,-0.14597 -0.44905,-0.14599z"/>
  <polygon class="fil3" points="4.53365,10.2859 4.5601,10.3124 "/>
  <path class="fil1" d="M5.88302 10.2859l0.02646 0.02646 -0.02646 -0.02646m13.7054 0l0.02646 0.02646 -0.02646 -0.02646z"/>
  <polygon class="fil3" points="4.2426,10.3124 4.26906,10.3389 "/>
  <path class="fil1" d="M19.6149 10.3124l0.02645 0.02645 -0.02645 -0.02645m-15.3723 0.02645l0.02646 0.02646 -0.02646 -0.02646z"/>
  <path class="fil2" d="M4.61302 10.3389l0.02646 0.02646 -0.02646 -0.02646m15.0283 0l0.02646 0.02646 -0.02646 -0.02646z"/>
  <polygon class="fil1" points="3.97802,10.3653 4.00448,10.3918 "/>
  <polygon class="fil3" points="4.66594,10.3653 4.6924,10.3918 "/>
  <polygon class="fil1" points="19.6943,10.3653 19.7207,10.3918 "/>
  <polygon class="fil2" points="3.97802,10.3918 4.00448,10.4182 "/>
  <path class="fil1" d="M4.6924 10.3918l0.02645 0.02646 -0.02645 -0.02646m15.0283 0l0.02646 0.02646 -0.02646 -0.02646z"/>
  <polygon class="fil2" points="19.7472,10.4182 19.7737,10.4447 "/>
  <polygon class="fil3" points="4.21615,10.4447 4.2426,10.4712 "/>
  <path class="fil2" d="M19.7737 10.4447l0.02645 0.02646 -0.02645 -0.02646m-15.5575 0.02646l0.02645 0.02645 -0.02645 -0.02645m15.584 0l0.02646 0.02645 -0.02646 -0.02645z"/>
  <polygon class="fil1" points="4.21615,10.4976 4.2426,10.5241 "/>
  <path class="fil2" d="M19.8266 10.4976l0.02646 0.02646 -0.02646 -0.02646m-15.875 0.02646l0.02646 0.02646 -0.02646 -0.02646z"/>
  <polygon class="fil3" points="3.95156,10.5505 3.97802,10.577 "/>
  <path class="fil1" d="M19.9059 10.5505l0.02646 0.02646 -0.02646 -0.02646m0.02646 0.02646l0.02645 0.02646 -0.02645 -0.02646z"/>
  <polygon class="fil3" points="4.18969,10.6034 4.21615,10.6299 "/>
  <path class="fil1" d="M4.18969 10.6299l0.02646 0.02645 -0.02646 -0.02645m-0.26459 0.02645l0.02646 0.02646 -0.02646 -0.02646z"/>
  <polygon class="fil2" points="19.9853,10.6564 20.0118,10.6828 "/>
  <polygon class="fil3" points="3.9251,10.6828 3.95156,10.7093 "/>
  <polygon class="fil1" points="20.0118,10.6828 20.0382,10.7093 "/>
  <polygon class="fil3" points="4.16323,10.7357 4.18969,10.7622 "/>
  <polygon class="fil1" points="20.0382,10.7357 20.0647,10.7622 "/>
  <polygon class="fil2" points="4.16323,10.7622 4.18969,10.7887 "/>
  <path class="fil1" d="M3.89865 10.7887l0.02645 0.02645 -0.02645 -0.02645m0.26458 0l0.02646 0.02645 -0.02646 -0.02645z"/>
  <path class="fil1" d="M20.0911 10.8151l0.02645 0.02646 -0.02645 -0.02646m0.02645 0.05292l0.02646 0.02646 -0.02646 -0.02646z"/>
  <polygon class="fil3" points="4.13677,10.8945 4.16323,10.9209 "/>
  <polygon class="fil1" points="3.87219,10.9209 3.89865,10.9474 "/>
  <polygon class="fil2" points="4.13677,10.9209 4.16323,10.9474 "/>
  <polygon class="fil1" points="20.1441,10.9209 20.1705,10.9474 "/>
  <polygon class="fil2" points="3.87219,10.9474 3.89865,10.9739 "/>
  <path class="fil1" d="M20.1705 10.9474l0.02646 0.02645 -0.02646 -0.02645m0.02646 0.05291l0.02646 0.02646 -0.02646 -0.02646z"/>
  <polygon class="fil3" points="4.11031,11.0268 4.13677,11.0532 "/>
  <polygon class="fil1" points="3.84573,11.0532 3.87219,11.0797 "/>
  <path class="fil2" d="M4.11031 11.0532l0.02646 0.02646 -0.02646 -0.02646m-0.26458 0.02646l0.02646 0.02646 -0.02646 -0.02646z"/>
  <path class="fil1" d="M4.11031 11.0797l0.02646 0.02646 -0.02646 -0.02646m16.1396 0l0.02645 0.02646 -0.02645 -0.02646z"/>
  <polygon class="fil3" points="3.84573,11.1062 3.87219,11.1326 "/>
  <polygon class="fil2" points="20.2764,11.1326 20.3028,11.1591 "/>
  <polygon class="fil1" points="20.3028,11.1591 20.3293,11.1855 "/>
  <polygon class="fil3" points="4.08385,11.1855 4.11031,11.212 "/>
  <path class="fil2" d="M3.81927 11.212l0.02646 0.02646 -0.02646 -0.02646m0.26458 0l0.02646 0.02646 -0.02646 -0.02646z"/>
  <polygon class="fil1" points="20.3293,11.212 20.3557,11.2384 "/>
  <polygon class="fil3" points="3.81927,11.2384 3.84573,11.2649 "/>
  <polygon class="fil1" points="20.3557,11.2649 20.3822,11.2914 "/>
  <polygon class="fil3" points="4.0574,11.3178 4.08385,11.3443 "/>
  <path class="fil1" d="M20.3822 11.3178l0.02646 0.02646 -0.02646 -0.02646m-16.5894 0.02646l0.02646 0.02646 -0.02646 -0.02646z"/>
  <polygon class="fil2" points="4.0574,11.3443 4.08385,11.3707 "/>
  <polygon class="fil3" points="3.79281,11.3707 3.81927,11.3972 "/>
  <path class="fil7" d="M18.268 11.4649c-0.16508,0.04744 -0.1954,0.34472 -0.04937,0.43428 0.07929,0.04864 0.22037,0.0421 0.31146,0.05234 0.21291,0.02389 0.42183,0.06742 0.635,0.08305 0.08554,0.00627 0.20069,0.04792 0.28263,0.00812 0.15161,-0.07363 0.04435,-0.37356 -0.07241,-0.42785 -0.19926,-0.09269 -0.44662,-0.08668 -0.66001,-0.11962 -0.14716,-0.02273 -0.29771,-0.07332 -0.4473,-0.03032z"/>
  <polygon class="fil1" points="3.76635,11.4766 3.79281,11.503 "/>
  <polygon class="fil3" points="4.03094,11.4766 4.0574,11.503 "/>
  <polygon class="fil3" points="3.76635,11.503 3.79281,11.5295 "/>
  <polygon class="fil2" points="4.03094,11.503 4.0574,11.5295 "/>
  <path class="fil2" d="M3.7399 11.6353l0.02645 0.02646 -0.02645 -0.02646m0.26458 0l0.02646 0.02646 -0.02646 -0.02646z"/>
  <polygon class="fil2" points="3.71344,11.7676 3.7399,11.7941 "/>
  <polygon class="fil3" points="3.97802,11.7676 4.00448,11.7941 "/>
  <polygon class="fil3" points="3.71344,11.7941 3.7399,11.8205 "/>
  <polygon class="fil2" points="3.97802,11.7941 4.00448,11.8205 "/>
  <path class="fil3" d="M3.68698 11.9264l0.02646 0.02646 -0.02646 -0.02646m0.26458 0l0.02646 0.02646 -0.02646 -0.02646z"/>
  <path class="fil3" d="M3.66052 12.0587l0.02646 0.02645 -0.02646 -0.02645m0.26458 0l0.02646 0.02645 -0.02646 -0.02645z"/>
  <polygon class="fil2" points="3.9251,12.0851 3.95156,12.1116 "/>
  <polygon class="fil1" points="3.9251,12.1116 3.95156,12.138 "/>
  <polygon class="fil1" points="3.63406,12.1645 3.66052,12.1909 "/>
  <path class="fil3" d="M3.63406 12.1909l0.02646 0.02646 -0.02646 -0.02646m0.26459 0.02646l0.02645 0.02645 -0.02645 -0.02645z"/>
  <polygon class="fil1" points="20.5939,12.2174 20.6203,12.2439 "/>
  <polygon class="fil2" points="3.89865,12.2439 3.9251,12.2703 "/>
  <polygon class="fil2" points="3.6076,12.3232 3.63406,12.3497 "/>
  <polygon class="fil2" points="3.87219,12.3762 3.89865,12.4026 "/>
  <path class="fil1" d="M20.6468 12.3762l0.02646 0.02645 -0.02646 -0.02645m-16.7746 0.02645l0.02646 0.02646 -0.02646 -0.02646z"/>
  <polygon class="fil1" points="20.6732,12.4291 20.6997,12.4555 "/>
  <path class="fil1" d="M20.7262 12.482l0.02645 0.02646 -0.02645 -0.02646m0.05291 0.02646l0.02646 0.02646 -0.02646 -0.02646z"/>
  <polygon class="fil2" points="20.8055,12.5349 20.832,12.5614 "/>
  <polygon class="fil3" points="3.55469,12.6143 3.58115,12.6407 "/>
  <polygon class="fil1" points="20.8584,12.6143 20.8849,12.6407 "/>
  <polygon class="fil1" points="3.39594,12.773 3.4224,12.7995 "/>
  <path class="fil2" d="M2.89323 12.9053l0.02646 0.02646 -0.02646 -0.02646m17.9388 0l0.02646 0.02646 -0.02646 -0.02646z"/>
  <polygon class="fil1" points="2.7874,12.9318 2.81385,12.9582 "/>
  <polygon class="fil2" points="2.81385,12.9318 2.84031,12.9582 "/>
  <polygon class="fil1" points="20.832,12.9318 20.8584,12.9582 "/>
  <polygon class="fil1" points="20.7526,13.0112 20.7791,13.0376 "/>
  <polygon class="fil2" points="1.72906,13.1964 1.75552,13.2228 "/>
  <polygon class="fil1" points="1.57031,13.2228 1.59677,13.2493 "/>
  <polygon class="fil1" points="1.27927,13.3022 1.30573,13.3287 "/>
  <polygon class="fil2" points="1.30573,13.3022 1.33219,13.3287 "/>
  <polygon class="fil2" points="1.0676,13.3816 1.09406,13.408 "/>
  <polygon class="fil1" points="0.93531,13.408 0.96177,13.4345 "/>
  <polygon class="fil2" points="0.96177,13.408 0.98823,13.4345 "/>
  <polygon class="fil1" points="0.85594,13.4345 0.8824,13.4609 "/>
  <polygon class="fil2" points="0.8824,13.4345 0.90885,13.4609 "/>
  <polygon class="fil2" points="0.82948,13.4609 0.85594,13.4874 "/>
  <polygon class="fil1" points="0.69719,13.4874 0.72365,13.5139 "/>
  <polygon class="fil2" points="0.72365,13.4874 0.7501,13.5139 "/>
  <polygon class="fil1" points="0.61781,13.5139 0.64427,13.5403 "/>
  <path class="fil1" d="M20.5674 13.5139l0.02645 0.02646 -0.02645 -0.02646m-20.029 0.02646l0.02646 0.02646 -0.02646 -0.02646z"/>
  <polygon class="fil2" points="0.5649,13.5403 0.59135,13.5668 "/>
  <polygon class="fil1" points="0.48552,13.5668 0.51198,13.5932 "/>
  <path class="fil4" d="M12.4712 13.7255c0.19486,0 0.38356,0.02516 0.55562,-0.07937l0 -0.05292c-0.16907,-0.04998 -0.49366,-0.07199 -0.55562,0.13229z"/>
  <polygon class="fil1" points="0.27385,13.6462 0.30031,13.6726 "/>
  <polygon class="fil1" points="0.19448,13.6726 0.22094,13.6991 "/>
  <polygon class="fil2" points="0.22094,13.6726 0.2474,13.6991 "/>
  <polygon class="fil1" points="0.1151,13.6991 0.14156,13.7255 "/>
  <polygon class="fil2" points="0.14156,13.6991 0.16802,13.7255 "/>
  <polygon class="fil1" points="0.06219,13.7255 0.08865,13.752 "/>
  <polygon class="fil2" points="0.00927,13.752 0.03573,13.7784 "/>
  <polygon class="fil2" points="-0.04365,13.8578 -0.01719,13.8843 "/>
  <path class="fil2" d="M4.16323 16.6624c0,-0.24292 0.04133,-0.47406 0.05188,-0.71438 0.01617,-0.36896 0.00104,-0.74192 0.00104,-1.11125 0,-0.25712 0.03757,-0.59656 -0.12073,-0.8197 -0.17026,-0.23996 -0.57648,-0.15926 -0.83177,-0.15926l-2.32834 0c-0.21523,8e-005 -0.41822,0.05255 -0.635,0.05292 -0.09202,0.00016 -0.19322,-0.01114 -0.25997,0.064 -0.16809,0.18926 -0.09755,0.44561 -0.11161,0.67681 -0.00587,0.0966 -0.06141,0.17298 -0.07163,0.26699 -0.03664,0.33671 -0.00603,0.69098 -0.00658,1.02949 -0.00027,0.17187 -0.05345,0.37399 0.05008,0.52771 0.14971,0.22231 0.46105,0.08718 0.66182,0.21148 0.10622,0.06578 0.13502,0.21389 0.2682,0.23585 0.35651,0.05874 0.74893,-0.01143 1.11011,0.00495 0.44429,0.02019 0.90191,0.11433 1.34898,0.02254 0.12438,-0.02553 0.17724,-0.14861 0.28736,-0.20418 0.18913,-0.09548 0.38005,-0.08397 0.58616,-0.08397z"/>
  <polygon class="fil2" points="-0.0701,13.8843 -0.04365,13.9107 "/>
  <polygon class="fil3" points="-0.09656,13.9372 -0.0701,13.9637 "/>
  <path class="fil4" d="M0.61781 13.9637l-0.02646 0.21166 0.66146 0c0.09656,0 0.22371,0.01789 0.31013,-0.03487 0.06512,-0.03974 0.07569,-0.10792 0.08675,-0.17679 -0.17234,-0.04104 -0.32942,-0.01424 -0.50271,-0.00239 -0.1751,0.01202 -0.35368,0.00239 -0.52917,0.00239m1.5875 0.15875c-0.03061,-0.14463 -0.23847,-0.27057 -0.37723,-0.15801 -0.12154,0.09855 0.0102,0.20484 0.11278,0.21039 0.03464,0.00188 0.07109,0.00106 0.10557,-0.00291 0.05757,-0.00659 0.1061,-0.02712 0.15888,-0.04947m1.27 -0.1323c-0.13845,-0.04093 -0.28099,-0.01722 -0.42333,-0.03399 -0.09806,-0.01159 -0.19214,-0.0189 -0.29104,-0.01892 -0.10158,-3e-005 -0.2735,-0.03196 -0.36201,0.0272 -0.05405,0.03611 -0.08091,0.13853 -0.01889,0.18137 0.06139,0.04236 0.20326,0.00346 0.27506,0.00312l0.52917 -3e-005c0.06914,-2e-005 0.16415,0.01445 0.22453,-0.02706 0.0449,-0.03088 0.05342,-0.08316 0.06651,-0.13169z"/>
  <polygon class="fil1" points="20.4351,13.9901 20.4616,14.0166 "/>
  <path class="fil8" d="M10.7514 14.1489l0 0.1323c0.38926,-0.00109 0.77656,-0.05046 1.16417,-0.077 0.36147,-0.02476 0.72327,-0.02677 1.08479,-0.0553l0.02646 -0.13229c-0.4414,6e-005 -0.88299,0.04689 -1.32292,0.077 -0.31781,0.02177 -0.63732,-0.00321 -0.9525,0.05529z"/>
  <polygon class="fil1" points="20.3822,14.0959 20.4087,14.1224 "/>
  <path class="fil8" d="M4.90406 14.5193l0.02646 0.23813c0.42744,-0.05655 0.86363,-0.05512 1.29408,-0.10922 0.34851,-0.04382 0.70792,-0.10065 1.06071,-0.12653 0.33367,-0.02445 0.67284,-0.02429 1.00542,-0.0599 0.26501,-0.02836 0.52681,-0.05355 0.79375,-0.07239 0.08998,-0.00638 0.22291,0.0145 0.23265,-0.10925 0.01188,-0.15068 -0.13547,-0.11366 -0.23265,-0.10718 -0.25326,0.01693 -0.5161,0.00709 -0.76729,0.04006 -0.10261,0.01349 -0.21238,0.00156 -0.313,0.02249 -0.07581,0.01577 -0.1374,0.06091 -0.21628,0.06927 -0.39481,0.04191 -0.79478,0.03103 -1.19051,0.05815 -0.56484,0.03866 -1.12927,0.11184 -1.69334,0.15637z"/>
  <polygon class="fil2" points="9.29615,14.1489 9.3226,14.1753 "/>
  <polygon class="fil1" points="20.3557,14.1489 20.3822,14.1753 "/>
  <polygon class="fil1" points="20.3293,14.2018 20.3557,14.2282 "/>
  <polygon class="fil2" points="7.89385,14.2547 7.92031,14.2812 "/>
  <path class="fil1" d="M7.92031 14.2547l0.02646 0.02646 -0.02646 -0.02646m12.3825 0l0.02646 0.02646 -0.02646 -0.02646z"/>
  <polygon class="fil1" points="7.8674,14.2812 7.89385,14.3076 "/>
  <polygon class="fil2" points="20.2764,14.2812 20.3028,14.3076 "/>
  <path class="fil1" d="M7.47052 14.3076l0.02646 0.02646 -0.02646 -0.02646m12.8058 0l0.02646 0.02646 -0.02646 -0.02646z"/>
  <path class="fil1" d="M7.04719 14.3341l0.02646 0.02646 -0.02646 -0.02646m13.2027 0l0.02645 0.02646 -0.02645 -0.02646z"/>
  <path class="fil2" d="M9.29615 14.3605l0.02645 0.02646 -0.02645 -0.02646m10.9273 0l0.02646 0.02646 -0.02646 -0.02646z"/>
  <path class="fil4" d="M0.5649 14.4134c0.03349,0.29718 0.5175,0.21169 0.74083,0.21166 0.08469,0 0.18416,0.01249 0.26303,-0.02481 0.08675,-0.04107 0.13018,-0.14195 0.02407,-0.18968 -0.09858,-0.04435 -0.21189,-0.01133 -0.31356,-0.00167 -0.0963,0.00918 -0.19441,0.0045 -0.29104,0.0045l-0.42333 0z"/>
  <path class="fil4" d="M1.87413 14.4121c-0.09339,0.04017 -0.11025,0.17846 -0.04299,0.25001 0.05495,0.05844 0.19317,0.0554 0.26096,0.02278 0.21344,-0.10274 -0.05295,-0.34378 -0.21797,-0.27279m0.43702 0.00138c0.00068,0.05852 -0.00987,0.14327 0.04241,0.18446 0.06953,0.0548 0.21876,0.0272 0.30154,0.0272 0.21911,0 0.74256,0.10277 0.82021,-0.15875 -0.14832,-0.09337 -0.25627,-0.055 -0.42333,-0.05302 -0.24688,0.00294 -0.49395,0.00011 -0.74083,0.00011z"/>
  <polygon class="fil1" points="20.2234,14.387 20.2499,14.4134 "/>
  <polygon class="fil1" points="20.197,14.4134 20.2234,14.4399 "/>
  <polygon class="fil2" points="20.1705,14.4399 20.197,14.4664 "/>
  <polygon class="fil1" points="20.1705,14.4664 20.197,14.4928 "/>
  <path class="fil1" d="M20.1441 14.4928l0.02646 0.02646 -0.02646 -0.02646m-0.02646 0.02646l0.02646 0.02646 -0.02646 -0.02646z"/>
  <path class="fil1" d="M20.0911 14.5457l0.02645 0.02646 -0.02645 -0.02646m-0.02646 0.02646l0.02646 0.02646 -0.02646 -0.02646z"/>
  <path class="fil8" d="M20.3367 15.6674c0.15214,-0.09308 0.11842,-0.37796 -0.03353,-0.47154 -0.19136,-0.11782 -0.54432,-0.07485 -0.76234,-0.10308 -0.27579,-0.03575 -0.54638,-0.01744 -0.8224,-0.03631 -0.57312,-0.03913 -1.15312,-0.0735 -1.72437,-0.13451 -0.2121,-0.02265 -0.42393,-0.06855 -0.6367,-0.09369 -0.1016,-0.01198 -0.217,0.01151 -0.31547,-0.01595 -0.09185,-0.02561 -0.11469,-0.15555 -0.21158,-0.16103 -0.11667,-0.00656 -0.31728,0.32859 -0.2625,0.42244 0.05818,0.09974 0.22773,0.01976 0.31203,0.00518 0.27299,-0.04728 0.59956,-0.04178 0.87546,-0.01556 0.35281,0.0335 0.70665,0.09229 1.06115,0.10094 0.61845,0.01514 1.26533,-0.07178 1.85939,0.11512 0.27322,0.08594 0.47478,0.15957 0.66086,0.38799z"/>
  <polygon class="fil2" points="15.752,14.678 15.7784,14.7045 "/>
  <polygon class="fil1" points="20.3822,14.7309 20.4087,14.7574 "/>
  <polygon class="fil2" points="15.6991,14.7574 15.7255,14.7839 "/>
  <polygon class="fil3" points="20.4087,14.7574 20.4351,14.7839 "/>
  <polygon class="fil2" points="20.4351,14.7574 20.4616,14.7839 "/>
  <polygon class="fil1" points="20.488,14.7839 20.5145,14.8103 "/>
  <path class="fil4" d="M0.89081 14.864c-0.08473,0.05654 -0.08314,0.22442 0.02196,0.25543 0.1442,0.04254 0.34806,-0.01701 0.49879,-0.01807 0.05686,-0.0004 0.12695,0.00608 0.1768,-0.02717 0.08435,-0.05626 0.06507,-0.18897 -0.02715,-0.22379 -0.13697,-0.05173 -0.34848,-0.01458 -0.49361,-0.01357 -0.05684,0.00039 -0.12697,-0.00609 -0.17679,0.02717m0.99986 -0.01204c-0.10013,0.03173 -0.12863,0.14489 -0.04061,0.21148 0.06067,0.04591 0.17655,0.05191 0.24548,0.02199 0.19452,-0.0844 -0.06641,-0.27731 -0.20487,-0.23347m0.42048 0.0113c0.00095,0.04411 -0.00037,0.08911 0.0091,0.13253 0.05495,0.25156 0.34867,0.12853 0.52006,0.1102 0.10211,-0.01096 0.26731,0.02728 0.34759,-0.05366 0.15927,-0.1606 -0.17471,-0.21688 -0.26821,-0.21278 -0.07988,0.00352 -0.15788,0.02135 -0.23813,0.02331 -0.12335,0.00305 -0.24704,0.0004 -0.37041,0.0004z"/>
  <polygon class="fil2" points="15.6197,14.8897 15.6462,14.9162 "/>
  <polygon class="fil1" points="20.5409,14.8897 20.5674,14.9162 "/>
  <polygon class="fil1" points="20.5409,15.1278 20.5674,15.1543 "/>
  <polygon class="fil3" points="20.3028,15.1807 20.3293,15.2072 "/>
  <polygon class="fil2" points="20.5145,15.1807 20.5409,15.2072 "/>
  <polygon class="fil3" points="20.3293,15.2072 20.3557,15.2337 "/>
  <polygon class="fil2" points="20.488,15.2337 20.5145,15.2601 "/>
  <path class="fil4" d="M1.84292 15.2897c-0.08203,0.04572 -0.10867,0.20468 -0.02597,0.26075 0.06404,0.04344 0.23189,0.04511 0.30057,0.01124 0.07298,-0.03601 0.06115,-0.1297 0.02125,-0.18661 -0.05398,-0.07702 -0.20804,-0.13433 -0.29585,-0.08538z"/>
  <path class="fil4" d="M0.82948 15.5512l0.34396 0 0.21166 0c0.06403,-3e-005 0.14557,0.0114 0.20552,-0.01596 0.11199,-0.05114 0.05024,-0.17931 -0.0327,-0.22381 -0.13702,-0.0735 -0.34347,-0.0005 -0.49032,0.00154 -0.0585,0.00082 -0.1428,-0.01249 -0.19202,0.0273 -0.05761,0.04657 -0.04551,0.14557 -0.0461,0.21093m1.45521 0c0.2894,0 0.65638,0.06135 0.92604,-0.05292 -0.04829,-0.30276 -0.35385,-0.2032 -0.58208,-0.18759 -0.08004,0.0055 -0.20413,-0.02199 -0.27245,0.02958 -0.06183,0.04667 -0.06537,0.14118 -0.07151,0.21093z"/>
  <polygon class="fil2" points="20.3557,15.2866 20.3822,15.313 "/>
  <path class="fil2" d="M20.1176 15.4453l0.02646 0.02646 -0.02646 -0.02646m0.02646 0.02646l0.02646 0.02646 -0.02646 -0.02646z"/>
  <path class="fil7" d="M15.0112 15.4982c0.00232,0.11242 -0.01112,0.37888 0.09085,0.44905 0.06067,0.04178 0.15719,0.02717 0.22665,0.0272l0.47625 0c0.0672,-0.00011 0.16544,0.01368 0.22217,-0.0312 0.05704,-0.04513 0.04217,-0.14308 0.04241,-0.20693 -0.36192,-0.0286 -0.69678,-0.2087 -1.05833,-0.23812z"/>
  <polygon class="fil2" points="20.1705,15.4982 20.197,15.5247 "/>
  <path class="fil2" d="M15.2757 15.5247l0.02646 0.02646 -0.02646 -0.02646m4.92125 0l0.02646 0.02646 -0.02646 -0.02646z"/>
  <polygon class="fil2" points="15.3816,15.5512 15.408,15.5776 "/>
  <polygon class="fil1" points="15.5668,15.6041 15.5932,15.6305 "/>
  <polygon class="fil1" points="15.6197,15.6305 15.6462,15.657 "/>
  <path class="fil4" d="M0.82948 15.7628l0 0.23813c0.1922,0.03569 0.38719,0.02778 0.58208,0.02643 0.07647,-0.00053 0.16822,0.0046 0.22177,-0.0613 0.0483,-0.05943 0.02818,-0.13526 0.01636,-0.20326l-0.82021 0m0.9525 0.26459l0.18526 0c0.04286,-8e-005 0.08824,0.00333 0.13068,-0.00392 0.10393,-0.01773 0.11993,-0.12094 0.05821,-0.19934 -0.08356,-0.10612 -0.30708,-0.07797 -0.35819,0.04593 -0.02003,0.04858 -0.01535,0.10608 -0.01596,0.15733m1.42875 -0.18521c-0.11713,-0.07377 -0.20712,-0.07938 -0.34396,-0.07938l-0.26458 0c-0.07274,3e-005 -0.16706,-0.01307 -0.23199,0.0272 -0.09882,0.06128 -0.06707,0.19241 0.02903,0.23797 0.06918,0.03281 0.15655,0.00362 0.22942,0.00045 0.19949,-0.00863 0.51543,0.05511 0.58208,-0.18624z"/>
  <path class="fil5" d="M5.77719 17.3768l0.97896 0c0.13522,0 0.32506,0.03358 0.44966,-0.0268 0.12647,-0.06128 0.15353,-0.1737 0.2064,-0.29073 0.0835,-0.18489 0.24146,-0.38121 0.26998,-0.58205 -0.22418,-0.02035 -0.33153,-0.15698 -0.36828,-0.37042 -0.01629,-0.09469 -0.01661,-0.27525 -0.11599,-0.32433 -0.18179,-0.08972 -0.58015,0.00855 -0.72411,0.13354 -0.12213,0.10599 -0.18259,0.28739 -0.25337,0.42892 -0.16197,0.32395 -0.38962,0.66865 -0.44325,1.03187z"/>
  <polygon class="fil1" points="20.3557,15.7628 20.3822,15.7893 "/>
  <polygon class="fil2" points="20.3557,15.7893 20.3822,15.8157 "/>
  <polygon class="fil1" points="20.3822,15.8157 20.4087,15.8422 "/>
  <polygon class="fil2" points="20.3822,15.8422 20.4087,15.8687 "/>
  <polygon class="fil1" points="20.4087,15.8687 20.4351,15.8951 "/>
  <path class="fil2" d="M20.4351 15.9216l0.02646 0.02646 -0.02646 -0.02646m-4.41854 0.02646l0.02646 0.02646 -0.02646 -0.02646z"/>
  <polygon class="fil1" points="20.4616,15.948 20.488,15.9745 "/>
  <path class="fil3" d="M20.4616 15.9745l0.02646 0.02646 -0.02646 -0.02646m-19.588 0.03527c-0.01176,0.01177 0.01617,0.01029 0.01763,0.00884 0.01176,-0.01178 -0.01616,-0.0103 -0.01763,-0.00884z"/>
  <polygon class="fil1" points="20.488,16.0009 20.5145,16.0274 "/>
  <polygon class="fil1" points="20.5145,16.0539 20.5409,16.0803 "/>
  <polygon class="fil2" points="20.5409,16.1068 20.5674,16.1332 "/>
  <polygon class="fil1" points="20.5674,16.1332 20.5939,16.1597 "/>
  <path class="fil3" d="M20.5674 16.1597l0.02645 0.02646 -0.02645 -0.02646m-15.7692 0.02646l0 0.26458c0.03561,-0.08485 0.03561,-0.17973 0,-0.26458z"/>
  <polygon class="fil1" points="20.5939,16.1862 20.6203,16.2126 "/>
  <polygon class="fil2" points="20.6203,16.2391 20.6468,16.2655 "/>
  <path class="fil4" d="M0.59135 16.292l0 0.10583 0.7673 0c0.11554,-5e-005 0.22329,0.01855 0.26458,-0.10583l-1.03188 0z"/>
  <path class="fil4" d="M2.39052 16.3184c0.02977,0.10178 0.1134,0.10393 0.21167,0.1057 0.19388,0.00352 0.38817,0.00021 0.58208,0.00013 0.11105,-5e-005 0.20601,0.01598 0.23813,-0.10583l-1.03188 0z"/>
  <polygon class="fil1" points="20.6468,16.292 20.6732,16.3184 "/>
  <polygon class="fil1" points="20.6732,16.3184 20.6997,16.3449 "/>
  <polygon class="fil2" points="20.6732,16.3449 20.6997,16.3714 "/>
  <path class="fil1" d="M20.6997 16.3714l0.02646 0.02646 -0.02646 -0.02646m-20.8756 0.02646l0.02646 0.02646 -0.02646 -0.02646z"/>
  <path class="fil1" d="M20.7262 16.4243l0.02645 0.02646 -0.02645 -0.02646m-20.9286 0.02646l0.02646 0.02646 -0.02646 -0.02646z"/>
  <polygon class="fil1" points="-0.22885,16.4772 -0.2024,16.5037 "/>
  <polygon class="fil3" points="20.7526,16.4772 20.7791,16.5037 "/>
  <polygon class="fil1" points="-0.25531,16.5037 -0.22885,16.5301 "/>
  <path class="fil3" d="M-0.09656 16.5037l0.02646 0.02645 -0.02646 -0.02645m4.86833 0l0 0.23812c0.03323,-0.07922 0.03323,-0.15891 0,-0.23812m-5.02708 0.02645l0.02646 0.02646 -0.02646 -0.02646m0.18521 0l0.02645 0.02646 -0.02645 -0.02646z"/>
  <polygon class="fil2" points="-0.28177,16.5566 -0.25531,16.583 "/>
  <polygon class="fil1" points="-0.30823,16.583 -0.28177,16.6095 "/>
  <polygon class="fil1" points="-0.33469,16.6359 -0.30823,16.6624 "/>
  <polygon class="fil1" points="-0.36115,16.6889 -0.33469,16.7153 "/>
  <polygon class="fil1" points="-0.3876,16.7418 -0.36115,16.7682 "/>
  <path class="fil3" d="M7.55871 16.7594c-0.00146,0.00145 -0.00294,0.02939 0.00883,0.01762 0.00146,-0.00146 0.00294,-0.0294 -0.00883,-0.01762z"/>
  <polygon class="fil2" points="-0.3876,16.7682 -0.36115,16.7947 "/>
  <polygon class="fil1" points="-0.44052,16.8741 -0.41406,16.9005 "/>
  <path class="fil3" d="M-0.44052 16.9005l0.02646 0.02646 -0.02646 -0.02646m7.91985 0.01765c-0.00145,0.00145 -0.00294,0.02939 0.00884,0.01762 0.00145,-0.00146 0.00294,-0.0294 -0.00884,-0.01762z"/>
  <polygon class="fil1" points="-0.46698,16.927 -0.44052,16.9534 "/>
  <polygon class="fil1" points="-0.49344,17.0064 -0.46698,17.0328 "/>
  <path class="fil3" d="M7.3735 17.1298c-0.00146,0.00145 -0.00294,0.02939 0.00884,0.01762 0.00145,-0.00146 0.00293,-0.0294 -0.00884,-0.01762z"/>
  <path class="fil8" d="M14.5878 17.3768l0 0.13229c0.70464,0 1.41798,-0.08197 2.11667,-0.17399 0.21304,-0.02804 0.62545,0.06803 0.635,-0.22288 -0.24143,0.00201 -0.47419,0.07847 -0.71438,0.10133 -0.23682,0.02257 -0.47683,0.01273 -0.71437,0.03546 -0.43717,0.0418 -0.88302,0.12414 -1.32292,0.12779z"/>
  <path class="fil2" d="M4.13677 18.5145c0.27554,0.05114 0.59677,0.07776 0.87313,0.02646 -3e-005,-0.1424 0.02696,-0.42643 -0.05366,-0.54721 -0.04096,-0.06139 -0.11875,-0.05998 -0.18447,-0.0612 -0.14094,-0.00267 -0.28236,-0.00109 -0.42333,-0.00011 -0.05845,0.0004 -0.14333,-0.00958 -0.18447,0.04239 -0.08371,0.1057 -0.0272,0.40894 -0.0272,0.53967z"/>
  <path class="fil6" d="M5.08927 17.9324c-8e-005,0.10017 -0.0032,0.1933 -0.02646,0.29104 -0.04326,-0.01442 -0.03849,-0.00966 -0.05291,-0.05292 -0.04316,0.12033 0.00476,0.26572 -0.02646,0.39688 0.11144,0.01108 0.23643,0.07731 0.33792,0.00272 0.13589,-0.09985 0.16508,-0.50213 0.01889,-0.60653 -0.0663,-0.04736 -0.17414,-0.03114 -0.25098,-0.03119z"/>
  <path class="fil3" d="M20.832 18.0382l0.02646 0.02646 -0.02646 -0.02646m-12.8323 1.82562c0.07903,-0.00555 0.16041,-0.01706 0.17547,-0.11083 0.01066,-0.06652 -0.01275,-0.13978 -0.01569,-0.20667 -0.00744,-0.17036 -0.00037,-0.36274 0.04416,-0.52813 0.04458,-0.16547 0.19595,-0.26858 0.24585,-0.42437 0.06085,-0.00701 0.23185,-0.08175 0.09729,-0.1425 -0.14201,-0.06411 -0.34671,0.07728 -0.43839,0.17142 -0.33811,0.34727 -0.19349,0.83024 -0.10869,1.24108m12.0385 -1.24354c0.00034,0.12221 0.03244,0.24964 0.01812,0.37042 -0.0191,0.1615 -0.08419,0.31324 -0.0975,0.47625 0.20516,-0.05662 0.33782,-0.2966 0.42638,-0.47636 0.03707,-0.07522 0.09636,-0.17044 0.04474,-0.25341 -0.07395,-0.11883 -0.27083,-0.11655 -0.39174,-0.1169z"/>
  <path class="fil3" d="M16.6516 18.9643l0.02646 0.02646 -0.02646 -0.02646m-0.18521 0.02646l0.02646 0.02646 -0.02646 -0.02646z"/>
  <polygon class="fil1" points="16.4928,18.9907 16.5193,19.0172 "/>
  <polygon class="fil3" points="5.0099,19.0172 5.03635,19.0437 "/>
  <path class="fil1" d="M5.03635 19.0172c0.04681,0.02061 0.08033,0.02413 0.1323,0.02646 -0.04681,-0.02062 -0.08033,-0.02413 -0.1323,-0.02646z"/>
  <polygon class="fil2" points="16.4399,19.0172 16.4663,19.0437 "/>
  <path class="fil3" d="M4.85115 19.0437c0.03302,0.01812 0.04095,0.01981 0.07937,0.02645 -0.03302,-0.01812 -0.04096,-0.01981 -0.07937,-0.02645z"/>
  <path class="fil1" d="M4.82469 19.0701c0.05924,0.02146 0.09649,0.014 0.15875,0 -0.05504,-0.01341 -0.10155,-0.00627 -0.15875,0z"/>
  <path class="fil7" d="M4.32198 19.2818c0.1927,0.08313 0.45387,0.07938 0.66146,0.07938l1.00541 0c-0.10062,-0.07179 -0.22905,-0.0865 -0.34395,-0.13002 -0.16193,-0.06133 -0.32925,-0.15973 -0.50271,-0.18185 -0.24485,-0.03119 -0.60849,0.11623 -0.82021,0.23249z"/>
  <polygon class="fil1" points="5.1951,19.0437 5.22156,19.0701 "/>
  <path class="fil2" d="M16.4134 19.0437l0.02646 0.02645 -0.02646 -0.02645m-11.624 0.03526c-0.01178,0.01178 0.01616,0.0103 0.01762,0.00884 0.01177,-0.01177 -0.01617,-0.01029 -0.01762,-0.00884z"/>
  <polygon class="fil1" points="5.24802,19.0701 5.27448,19.0966 "/>
  <polygon class="fil2" points="5.27448,19.0701 5.30094,19.0966 "/>
  <polygon class="fil2" points="14.6937,19.0701 14.7201,19.0966 "/>
  <polygon class="fil1" points="16.387,19.0701 16.4134,19.0966 "/>
  <polygon class="fil3" points="4.6924,19.0966 4.71885,19.123 "/>
  <path class="fil1" d="M4.7365 19.1054c-0.01177,0.01178 0.01617,0.0103 0.01762,0.00884 0.01178,-0.01177 -0.01616,-0.01029 -0.01762,-0.00884z"/>
  <polygon class="fil2" points="10.8307,19.0966 10.8572,19.123 "/>
  <polygon class="fil2" points="14.7201,19.0966 14.7466,19.123 "/>
  <polygon class="fil1" points="16.3605,19.0966 16.387,19.123 "/>
  <polygon class="fil2" points="4.63948,19.123 4.66594,19.1495 "/>
  <path class="fil1" d="M4.68359 19.1318c-0.01178,0.01178 0.01616,0.01029 0.01762,0.00884 0.01177,-0.01178 -0.01617,-0.01029 -0.01762,-0.00884m0.71437 0c-0.01177,0.01178 0.01617,0.01029 0.01762,0.00884 0.01178,-0.01178 -0.01616,-0.01029 -0.01762,-0.00884z"/>
  <polygon class="fil3" points="5.43323,19.123 5.45969,19.1495 "/>
  <path class="fil1" d="M4.53365 19.1495c0.03984,0.01807 0.06125,0.02185 0.10583,0.02646 -0.03985,-0.01807 -0.06125,-0.02186 -0.10583,-0.02646z"/>
  <path class="fil2" d="M5.47734 19.1583c-0.01178,0.01177 0.01616,0.01029 0.01762,0.00884 0.01177,-0.01178 -0.01617,-0.0103 -0.01762,-0.00884z"/>
  <polygon class="fil3" points="5.5126,19.1495 5.53906,19.1759 "/>
  <polygon class="fil1" points="14.7466,19.1495 14.773,19.1759 "/>
  <path class="fil2" d="M4.34844 19.2553l0.13229 -0.05291c-0.06501,-0.01366 -0.09266,0.00015 -0.13229,0.05291z"/>
  <path class="fil1" d="M4.49838 19.1848c-0.01178,0.01177 0.01616,0.01029 0.01762,0.00884 0.01177,-0.01178 -0.01617,-0.0103 -0.01762,-0.00884m1.04068 -0.00881l0.02646 0.02646 -0.02646 -0.02646z"/>
  <path class="fil3" d="M5.56552 19.1759l0.02646 0.02646 -0.02646 -0.02646m5.29167 0l0.02646 0.02646 -0.02646 -0.02646m3.70416 0l0.02646 0.02646 -0.02646 -0.02646z"/>
  <path class="fil1" d="M14.773 19.1759l0.02646 0.02646 -0.02646 -0.02646m1.53458 0l0.02646 0.02646 -0.02646 -0.02646z"/>
  <path class="fil1" d="M20.8584 19.1759l0.02646 0.02646 -0.02646 -0.02646m-16.413 0.03527c-0.01177,0.01177 0.01617,0.01029 0.01762,0.00883 0.01178,-0.01177 -0.01616,-0.01029 -0.01762,-0.00883m1.14652 -0.00881l0.02646 0.02645 -0.02646 -0.02645z"/>
  <polygon class="fil2" points="5.61844,19.2024 5.6449,19.2289 "/>
  <path class="fil1" d="M10.8572 19.2024l0.02646 0.02645 -0.02646 -0.02645m3.94229 0l0.02646 0.02645 -0.02646 -0.02645z"/>
  <polygon class="fil2" points="16.2812,19.2024 16.3076,19.2289 "/>
  <path class="fil3" d="M4.26906 19.3082l0.07938 -0.05292c-0.05662,-0.02958 -0.06686,-0.00664 -0.07938,0.05292z"/>
  <path class="fil1" d="M5.6449 19.2289c0.03302,0.01813 0.04095,0.01982 0.07937,0.02646 -0.03302,-0.01812 -0.04096,-0.01981 -0.07937,-0.02646z"/>
  <polygon class="fil3" points="10.8836,19.2289 10.9101,19.2553 "/>
  <polygon class="fil1" points="14.8259,19.2289 14.8524,19.2553 "/>
  <path class="fil3" d="M14.8524 19.2289l0.02645 0.02646 -0.02645 -0.02646m1.40229 0l0.02646 0.02646 -0.02646 -0.02646z"/>
  <path class="fil1" d="M4.29552 19.2553c0.05297,0.08173 0.11811,0.07829 0.21167,0.07938 -0.0617,-0.02604 -0.11793,-0.02596 -0.18521,-0.02646l0.05292 -0.02646c-0.03302,-0.01812 -0.04096,-0.01982 -0.07938,-0.02646m1.45521 0l0.02646 0.02646 -0.02646 -0.02646z"/>
  <polygon class="fil3" points="5.77719,19.2553 5.80365,19.2818 "/>
  <polygon class="fil1" points="10.8836,19.2553 10.9101,19.2818 "/>
  <polygon class="fil2" points="14.8789,19.2553 14.9053,19.2818 "/>
  <polygon class="fil1" points="16.2547,19.2553 16.2812,19.2818 "/>
  <polygon class="fil1" points="5.8301,19.2818 5.85656,19.3082 "/>
  <polygon class="fil3" points="5.85656,19.2818 5.88302,19.3082 "/>
  <polygon class="fil2" points="14.9053,19.2818 14.9318,19.3082 "/>
  <polygon class="fil1" points="16.2282,19.2818 16.2547,19.3082 "/>
  <polygon class="fil3" points="20.5145,19.2818 20.5409,19.3082 "/>
  <polygon class="fil2" points="4.29552,19.3082 4.32198,19.3347 "/>
  <polygon class="fil1" points="5.93594,19.3082 5.9624,19.3347 "/>
  <polygon class="fil2" points="5.9624,19.3082 5.98885,19.3347 "/>
  <path class="fil3" d="M9.69302 19.3082c-0.05961,0.30734 -0.10663,0.60669 -0.21952,0.89958 -0.07086,0.18378 -0.19892,0.29475 -0.20381,0.50271 0.40251,-0.00476 0.60216,-0.59301 0.67029,-0.92604 0.04728,-0.23103 0.02908,-0.47297 -0.24696,-0.47625z"/>
  <polygon class="fil2" points="10.9101,19.3082 10.9366,19.3347 "/>
  <polygon class="fil1" points="14.9318,19.3082 14.9582,19.3347 "/>
  <polygon class="fil3" points="16.1753,19.3082 16.2018,19.3347 "/>
  <polygon class="fil1" points="16.2018,19.3082 16.2282,19.3347 "/>
  <path class="fil3" d="M4.42781 19.3347c0.03302,0.01812 0.04096,0.01981 0.07938,0.02646 -0.03302,-0.01813 -0.04096,-0.01982 -0.07938,-0.02646z"/>
  <path class="fil2" d="M4.50719 19.3347c0.03984,0.01807 0.06125,0.02185 0.10583,0.02646 -0.03985,-0.01808 -0.06125,-0.02186 -0.10583,-0.02646z"/>
  <path class="fil1" d="M4.61302 19.3347c0.03302,0.01812 0.04096,0.01981 0.07938,0.02646 -0.03302,-0.01813 -0.04096,-0.01982 -0.07938,-0.02646m1.24354 0.02646c0.07546,0.03143 0.13388,0.02286 0.21167,0 -0.07001,-0.02157 -0.13827,-0.00564 -0.21167,0m9.10167 -0.02646l0.02646 0.02646 -0.02646 -0.02646z"/>
  <polygon class="fil3" points="14.9847,19.3347 15.0112,19.3612 "/>
  <path class="fil3" d="M4.79823 19.3612c0.03302,0.01812 0.04098,0.01981 0.07937,0.02645 -0.03302,-0.01812 -0.04095,-0.01981 -0.07937,-0.02645z"/>
  <path class="fil2" d="M4.8776 19.3612c0.10475,0.04394 0.23125,0.02645 0.34396,0.02645l0.635 0c-0.10475,-0.04394 -0.23124,-0.02645 -0.34396,-0.02645l-0.635 0z"/>
  <path class="fil3" d="M6.04177 19.3612l0.02646 0.02645 -0.02646 -0.02645m4.89479 0l0.02646 0.02645 -0.02646 -0.02645z"/>
  <polygon class="fil2" points="15.0112,19.3612 15.0376,19.3876 "/>
  <polygon class="fil3" points="16.0959,19.3612 16.1224,19.3876 "/>
  <polygon class="fil1" points="16.1224,19.3612 16.1488,19.3876 "/>
  <polygon class="fil3" points="15.117,19.4141 15.1434,19.4405 "/>
  <polygon class="fil2" points="10.963,19.4405 10.9895,19.467 "/>
  <polygon class="fil1" points="15.1434,19.4405 15.1699,19.467 "/>
  <polygon class="fil3" points="15.1699,19.4405 15.1964,19.467 "/>
  <polygon class="fil2" points="15.9901,19.4405 16.0166,19.467 "/>
  <polygon class="fil1" points="10.963,19.467 10.9895,19.4934 "/>
  <polygon class="fil2" points="14.5084,19.467 14.5349,19.4934 "/>
  <polygon class="fil1" points="15.1964,19.467 15.2228,19.4934 "/>
  <polygon class="fil3" points="10.9895,19.4934 11.0159,19.5199 "/>
  <path class="fil3" d="M15.3022 19.4934l0.02646 0.02646 -0.02646 -0.02646m0.44979 0l0.02646 0.02646 -0.02646 -0.02646z"/>
  <polygon class="fil1" points="10.9895,19.5199 11.0159,19.5464 "/>
  <polygon class="fil3" points="14.482,19.5199 14.5084,19.5464 "/>
  <polygon class="fil3" points="11.0159,19.5464 11.0424,19.5728 "/>
  <polygon class="fil1" points="14.482,19.5464 14.5084,19.5728 "/>
  <polygon class="fil1" points="11.0159,19.5728 11.0424,19.5993 "/>
  <polygon class="fil3" points="14.4555,19.5728 14.482,19.5993 "/>
  <polygon class="fil3" points="20.488,19.6257 20.5145,19.6522 "/>
  <path class="fil1" d="M11.0424 19.6522l0.02645 0.02646 -0.02645 -0.02646m3.38666 0l0.02646 0.02646 -0.02646 -0.02646z"/>
  <polygon class="fil2" points="20.488,19.6522 20.5145,19.6787 "/>
  <polygon class="fil3" points="11.0688,19.6787 11.0953,19.7051 "/>
  <path class="fil2" d="M14.4026 19.6787l0.02646 0.02645 -0.02646 -0.02645m-3.33375 0.02645l0.02646 0.02646 -0.02646 -0.02646z"/>
  <polygon class="fil1" points="14.4026,19.7051 14.4291,19.7316 "/>
  <polygon class="fil2" points="20.4616,19.7051 20.488,19.7316 "/>
  <path class="fil3" d="M14.3762 19.7316l0.02645 0.02646 -0.02645 -0.02646m2.38125 0l0.02645 0.02646 -0.02645 -0.02646z"/>
  <polygon class="fil3" points="20.4351,19.758 20.4616,19.7845 "/>
  <polygon class="fil1" points="11.0953,19.7845 11.1218,19.8109 "/>
  <polygon class="fil2" points="14.3497,19.7845 14.3762,19.8109 "/>
  <polygon class="fil1" points="14.3497,19.8109 14.3762,19.8374 "/>
  <polygon class="fil2" points="3.81927,19.8374 3.84573,19.8639 "/>
  <polygon class="fil2" points="14.3232,19.8374 14.3497,19.8639 "/>
  <path class="fil3" d="M16.7839 19.8374l0.02646 0.02645 -0.02646 -0.02645m3.6248 0l0.02645 0.02645 -0.02645 -0.02645z"/>
  <path class="fil1" d="M16.7839 19.8639l0.02646 0.02646 -0.02646 -0.02646m3.6248 0l0.02645 0.02646 -0.02645 -0.02646z"/>
  <polygon class="fil3" points="3.79281,19.8903 3.81927,19.9168 "/>
  <path class="fil2" d="M10.2751 19.8903l0.02646 0.02646 -0.02646 -0.02646m0.87313 0l0.02646 0.02646 -0.02646 -0.02646m3.14854 0l0.02646 0.02646 -0.02646 -0.02646z"/>
  <polygon class="fil2" points="3.79281,19.9168 3.81927,19.9432 "/>
  <polygon class="fil2" points="20.3822,19.9168 20.4087,19.9432 "/>
  <polygon class="fil3" points="11.1747,19.9432 11.2012,19.9697 "/>
  <polygon class="fil2" points="14.2703,19.9432 14.2968,19.9697 "/>
  <polygon class="fil1" points="20.3822,19.9432 20.4087,19.9697 "/>
  <polygon class="fil3" points="3.76635,19.9697 3.79281,19.9962 "/>
  <polygon class="fil2" points="6.54448,19.9697 6.57094,19.9962 "/>
  <polygon class="fil3" points="10.2487,19.9697 10.2751,19.9962 "/>
  <polygon class="fil1" points="11.1747,19.9697 11.2012,19.9962 "/>
  <polygon class="fil2" points="20.3557,19.9697 20.3822,19.9962 "/>
  <path class="fil1" d="M0.30031 19.9962l0.02646 0.02645 -0.02646 -0.02645m3.46604 0l0.02646 0.02645 -0.02646 -0.02645z"/>
  <polygon class="fil2" points="10.2487,19.9962 10.2751,20.0226 "/>
  <path class="fil1" d="M11.2012 19.9962l0.02645 0.02645 -0.02645 -0.02645m3.0427 0l0.02646 0.02645 -0.02646 -0.02645m6.11188 0l0.02646 0.02645 -0.02646 -0.02645z"/>
  <polygon class="fil3" points="0.32677,20.0226 0.35323,20.0491 "/>
  <polygon class="fil2" points="6.57094,20.0226 6.5974,20.0491 "/>
  <polygon class="fil1" points="11.2276,20.0226 11.2541,20.0491 "/>
  <path class="fil2" d="M14.2174 20.0226l0.02645 0.02646 -0.02645 -0.02646m6.11187 0l0.02646 0.02646 -0.02646 -0.02646m-20.0025 0.02646l0.02646 0.02646 -0.02646 -0.02646m3.41313 0l0.02645 0.02646 -0.02645 -0.02646z"/>
  <polygon class="fil3" points="10.2222,20.0491 10.2487,20.0755 "/>
  <polygon class="fil2" points="11.2541,20.0491 11.2805,20.0755 "/>
  <polygon class="fil3" points="14.1909,20.0491 14.2174,20.0755 "/>
  <polygon class="fil1" points="16.8368,20.0491 16.8632,20.0755 "/>
  <polygon class="fil2" points="6.5974,20.0755 6.62385,20.102 "/>
  <path class="fil3" d="M11.2805 20.0755l0.02646 0.02646 -0.02646 -0.02646m2.88396 0l0.02646 0.02646 -0.02646 -0.02646m2.69875 0l0.02646 0.02646 -0.02646 -0.02646z"/>
  <path class="fil2" d="M20.3028 20.0755l0.02646 0.02646 -0.02646 -0.02646m-19.9496 0.02646l0.02646 0.02646 -0.02646 -0.02646z"/>
  <polygon class="fil3" points="3.71344,20.102 3.7399,20.1284 "/>
  <polygon class="fil1" points="6.5974,20.102 6.62385,20.1284 "/>
  <polygon class="fil2" points="14.138,20.102 14.1645,20.1284 "/>
  <path class="fil1" d="M16.8632 20.102l0.02646 0.02646 -0.02646 -0.02646m-16.51 0.02646l0.02646 0.02646 -0.02646 -0.02646m3.36021 0l0.02646 0.02646 -0.02646 -0.02646z"/>
  <path class="fil3" d="M6.62385 20.1284l0.02646 0.02646 -0.02646 -0.02646m3.57188 0l0.02646 0.02646 -0.02646 -0.02646z"/>
  <polygon class="fil1" points="11.307,20.1284 11.3334,20.1549 "/>
  <polygon class="fil2" points="14.1116,20.1284 14.138,20.1549 "/>
  <polygon class="fil3" points="16.8897,20.1284 16.9162,20.1549 "/>
  <polygon class="fil2" points="20.2764,20.1284 20.3028,20.1549 "/>
  <polygon class="fil3" points="0.37969,20.1549 0.40615,20.1814 "/>
  <polygon class="fil1" points="6.62385,20.1549 6.65031,20.1814 "/>
  <polygon class="fil2" points="10.1957,20.1549 10.2222,20.1814 "/>
  <polygon class="fil1" points="11.3334,20.1549 11.3599,20.1814 "/>
  <polygon class="fil2" points="14.0851,20.1549 14.1116,20.1814 "/>
  <path class="fil1" d="M16.8897 20.1549l0.02646 0.02645 -0.02646 -0.02645m-16.51 0.02645l0.02646 0.02646 -0.02646 -0.02646z"/>
  <polygon class="fil3" points="3.68698,20.1814 3.71344,20.2078 "/>
  <path class="fil2" d="M11.3599 20.1814l0.02645 0.02646 -0.02645 -0.02646m2.69875 0l0.02645 0.02646 -0.02645 -0.02646m2.8575 0l0.02645 0.02646 -0.02645 -0.02646m3.33375 0l0.02645 0.02646 -0.02645 -0.02646z"/>
  <polygon class="fil1" points="3.68698,20.2078 3.71344,20.2343 "/>
  <polygon class="fil2" points="6.65031,20.2078 6.67677,20.2343 "/>
  <polygon class="fil3" points="11.3864,20.2078 11.4128,20.2343 "/>
  <path class="fil1" d="M14.0322 20.2078l0.02646 0.02646 -0.02646 -0.02646m2.88396 0l0.02645 0.02646 -0.02645 -0.02646z"/>
  <polygon class="fil2" points="0.40615,20.2343 0.4326,20.2607 "/>
  <path class="fil2" d="M3.66052 20.2343l0.02646 0.02646 -0.02646 -0.02646m6.50875 0l0.02646 0.02646 -0.02646 -0.02646z"/>
  <polygon class="fil3" points="11.4128,20.2343 11.4393,20.2607 "/>
  <polygon class="fil1" points="14.0057,20.2343 14.0322,20.2607 "/>
  <path class="fil2" d="M16.9426 20.2343l0.02646 0.02646 -0.02646 -0.02646m3.28084 0l0.02646 0.02646 -0.02646 -0.02646z"/>
  <path class="fil1" d="M3.66052 20.2607l0.02646 0.02646 -0.02646 -0.02646m6.50875 0l0.02646 0.02646 -0.02646 -0.02646z"/>
  <path class="fil3" d="M11.4393 20.2607l0.02646 0.02646 -0.02646 -0.02646m2.51354 0l0.02646 0.02646 -0.02646 -0.02646z"/>
  <polygon class="fil1" points="13.9793,20.2607 14.0057,20.2872 "/>
  <path class="fil3" d="M16.9691 20.2607l0.02646 0.02646 -0.02646 -0.02646m-16.5365 0.02646l0.02646 0.02646 -0.02646 -0.02646z"/>
  <path class="fil3" d="M6.67677 20.2872l0.02646 0.02646 -0.02646 -0.02646m3.46604 0l0.02646 0.02646 -0.02646 -0.02646z"/>
  <polygon class="fil2" points="11.4657,20.2872 11.4922,20.3137 "/>
  <path class="fil3" d="M11.5098 20.296c-0.01178,0.01177 0.01616,0.01029 0.01762,0.00884 0.01177,-0.01178 -0.01617,-0.0103 -0.01762,-0.00884m2.41651 -0.00881l0.02646 0.02646 -0.02646 -0.02646z"/>
  <path class="fil2" d="M16.9691 20.2872l0.02646 0.02646 -0.02646 -0.02646m3.22792 0l0.02646 0.02646 -0.02646 -0.02646m-19.7644 0.02646l0.02646 0.02645 -0.02646 -0.02645z"/>
  <path class="fil1" d="M6.67677 20.3137l0.02646 0.02645 -0.02646 -0.02645m3.46604 0l0.02646 0.02645 -0.02646 -0.02645z"/>
  <path class="fil2" d="M11.6157 20.3225c-0.01178,0.01177 0.01616,0.01029 0.01762,0.00883 0.01177,-0.01177 -0.01617,-0.01029 -0.01762,-0.00883z"/>
  <polygon class="fil3" points="11.6509,20.3137 11.6774,20.3401 "/>
  <polygon class="fil2" points="13.8999,20.3137 13.9263,20.3401 "/>
  <polygon class="fil3" points="16.9955,20.3137 17.022,20.3401 "/>
  <polygon class="fil2" points="10.1164,20.3401 10.1428,20.3666 "/>
  <path class="fil1" d="M11.6509 20.3401c0.0468,0.02062 0.08033,0.02413 0.13229,0.02646 -0.04681,-0.02061 -0.08033,-0.02413 -0.13229,-0.02646z"/>
  <path class="fil2" d="M11.7832 20.3401l0.02646 0.02646 -0.02646 -0.02646m2.09021 0l0.02646 0.02646 -0.02646 -0.02646z"/>
  <polygon class="fil1" points="16.9955,20.3401 17.022,20.3666 "/>
  <polygon class="fil2" points="20.1705,20.3401 20.197,20.3666 "/>
  <polygon class="fil3" points="0.45906,20.3666 0.48552,20.393 "/>
  <path class="fil1" d="M11.8097 20.3666c0.03302,0.01813 0.04096,0.01982 0.07937,0.02646 -0.03302,-0.01812 -0.04095,-0.01982 -0.07937,-0.02646z"/>
  <path class="fil3" d="M11.8891 20.3666c0.09787,0.04107 0.21212,0.02646 0.3175,0.02646l0.55563 0c-0.09787,-0.04106 -0.21212,-0.02646 -0.3175,-0.02646l-0.55563 0z"/>
  <polygon class="fil1" points="13.847,20.3666 13.8734,20.393 "/>
  <path class="fil2" d="M17.022 20.3666l0.02646 0.02646 -0.02646 -0.02646m-16.5629 0.02646l0.02646 0.02646 -0.02646 -0.02646m3.14854 0l0.02646 0.02646 -0.02646 -0.02646z"/>
  <path class="fil3" d="M6.70323 20.393l0.02646 0.02646 -0.02646 -0.02646m3.38667 0l0.02645 0.02646 -0.02645 -0.02646z"/>
  <path class="fil2" d="M12.7887 20.393c0.03302,0.01812 0.04095,0.01982 0.07937,0.02646 -0.03302,-0.01812 -0.04096,-0.01982 -0.07937,-0.02646z"/>
  <polygon class="fil1" points="13.8205,20.393 13.847,20.4195 "/>
  <path class="fil2" d="M17.0484 20.393l0.02646 0.02646 -0.02646 -0.02646m3.09562 0l0.02646 0.02646 -0.02646 -0.02646z"/>
  <polygon class="fil1" points="0.45906,20.4195 0.48552,20.4459 "/>
  <path class="fil1" d="M6.70323 20.4195l0.02646 0.02646 -0.02646 -0.02646m3.38667 0l0.02645 0.02646 -0.02645 -0.02646m2.83104 0c0.03302,0.01812 0.04098,0.01982 0.07937,0.02646 -0.03302,-0.01813 -0.04095,-0.01982 -0.07937,-0.02646z"/>
  <polygon class="fil3" points="13.7676,20.4195 13.7941,20.4459 "/>
  <polygon class="fil1" points="13.7941,20.4195 13.8205,20.4459 "/>
  <path class="fil3" d="M17.0749 20.4195l0.02645 0.02646 -0.02645 -0.02646m-16.5894 0.02646l0.02646 0.02646 -0.02646 -0.02646z"/>
  <path class="fil1" d="M13.0003 20.4459c0.06168,0.02603 0.11793,0.02595 0.18521,0.02646 -0.0617,-0.02607 -0.11792,-0.02596 -0.18521,-0.02646z"/>
  <path class="fil2" d="M13.1855 20.4459c0.03302,0.01812 0.04096,0.01981 0.07938,0.02646 -0.03302,-0.01813 -0.04096,-0.01982 -0.07938,-0.02646z"/>
  <path class="fil3" d="M13.2649 20.4459c0.03302,0.01812 0.04095,0.01981 0.07937,0.02646 -0.03302,-0.01813 -0.04096,-0.01982 -0.07937,-0.02646m0.3175 0c0.0468,0.02061 0.08032,0.02413 0.13229,0.02646 -0.04681,-0.02062 -0.08033,-0.02413 -0.13229,-0.02646z"/>
  <polygon class="fil1" points="13.7147,20.4459 13.7412,20.4724 "/>
  <polygon class="fil2" points="17.1014,20.4459 17.1278,20.4724 "/>
  <path class="fil1" d="M20.1176 20.4459l0.02646 0.02646 -0.02646 -0.02646m-19.6321 0.02646l0.02646 0.02645 -0.02646 -0.02645m3.09563 0l0.02645 0.02645 -0.02645 -0.02645z"/>
  <path class="fil1" d="M13.3707 20.4724c0.06913,0.02905 0.13666,0.02627 0.21167,0.02645 -0.06914,-0.02905 -0.13663,-0.02627 -0.21167,-0.02645z"/>
  <path class="fil3" d="M17.1278 20.4724l0.02646 0.02645 -0.02646 -0.02645m2.96334 0l0.02645 0.02645 -0.02645 -0.02645z"/>
  <polygon class="fil2" points="3.55469,20.4989 3.58115,20.5253 "/>
  <polygon class="fil1" points="10.0634,20.4989 10.0899,20.5253 "/>
  <polygon class="fil2" points="17.1543,20.4989 17.1807,20.5253 "/>
  <polygon class="fil3" points="20.0647,20.4989 20.0911,20.5253 "/>
  <path class="fil1" d="M0.51198 20.5253l0.02646 0.02646 -0.02646 -0.02646m3.04271 0l0.02646 0.02646 -0.02646 -0.02646m3.175 0l0.02646 0.02646 -0.02646 -0.02646z"/>
  <polygon class="fil3" points="10.037,20.5253 10.0634,20.5518 "/>
  <polygon class="fil2" points="17.1807,20.5253 17.2072,20.5518 "/>
  <polygon class="fil1" points="20.0647,20.5253 20.0911,20.5518 "/>
  <path class="fil3" d="M0.53844 20.5518l0.02646 0.02646 -0.02646 -0.02646m2.98979 0l0.02646 0.02646 -0.02646 -0.02646m3.22792 0l0.02645 0.02646 -0.02645 -0.02646z"/>
  <polygon class="fil3" points="17.2072,20.5518 17.2337,20.5782 "/>
  <polygon class="fil2" points="20.0382,20.5518 20.0647,20.5782 "/>
  <polygon class="fil2" points="17.2337,20.5782 17.2601,20.6047 "/>
  <polygon class="fil3" points="20.0118,20.5782 20.0382,20.6047 "/>
  <path class="fil2" d="M0.5649 20.6047l0.02645 0.02646 -0.02645 -0.02646m2.93687 0l0.02646 0.02646 -0.02646 -0.02646z"/>
  <polygon class="fil1" points="17.2601,20.6047 17.2866,20.6312 "/>
  <polygon class="fil2" points="17.2866,20.6047 17.313,20.6312 "/>
  <polygon class="fil1" points="20.0118,20.6047 20.0382,20.6312 "/>
  <polygon class="fil2" points="10.0105,20.6312 10.037,20.6576 "/>
  <polygon class="fil1" points="17.313,20.6312 17.3395,20.6576 "/>
  <polygon class="fil3" points="17.3395,20.6312 17.3659,20.6576 "/>
  <polygon class="fil2" points="19.9853,20.6312 20.0118,20.6576 "/>
  <polygon class="fil1" points="0.59135,20.6576 0.61781,20.6841 "/>
  <polygon class="fil1" points="3.47531,20.6576 3.50177,20.6841 "/>
  <polygon class="fil2" points="6.7826,20.6576 6.80906,20.6841 "/>
  <polygon class="fil1" points="17.3659,20.6576 17.3924,20.6841 "/>
  <polygon class="fil3" points="17.3924,20.6576 17.4188,20.6841 "/>
  <path class="fil2" d="M19.9588 20.6576l0.02646 0.02646 -0.02646 -0.02646m-19.341 0.02646l0.02646 0.02646 -0.02646 -0.02646m2.83104 0l0.02646 0.02646 -0.02646 -0.02646z"/>
  <polygon class="fil3" points="9.98406,20.6841 10.0105,20.7105 "/>
  <polygon class="fil1" points="17.4188,20.6841 17.4453,20.7105 "/>
  <polygon class="fil1" points="0.61781,20.7105 0.64427,20.737 "/>
  <path class="fil1" d="M0.64427 20.7634l0.02646 0.02646 -0.02646 -0.02646m2.75167 0l0.02646 0.02646 -0.02646 -0.02646z"/>
  <polygon class="fil2" points="6.80906,20.7634 6.83552,20.7899 "/>
  <polygon class="fil3" points="9.9576,20.7634 9.98406,20.7899 "/>
  <polygon class="fil2" points="0.67073,20.7899 0.69719,20.8164 "/>
  <path class="fil1" d="M6.80906 20.7899l0.02646 0.02645 -0.02646 -0.02645m3.14854 0l0.02646 0.02645 -0.02646 -0.02645z"/>
  <polygon class="fil2" points="0.69719,20.8164 0.72365,20.8428 "/>
  <path class="fil2" d="M6.83552 20.8428l0.02646 0.02646 -0.02646 -0.02646m3.09563 0l0.02645 0.02646 -0.02645 -0.02646z"/>
  <polygon class="fil3" points="0.80302,20.8957 0.82948,20.9222 "/>
  <polygon class="fil2" points="6.86198,20.8957 6.88844,20.9222 "/>
  <polygon class="fil3" points="0.82948,20.9222 0.85594,20.9487 "/>
  <polygon class="fil1" points="3.26365,20.9222 3.2901,20.9487 "/>
  <polygon class="fil2" points="9.90469,20.9222 9.93115,20.9487 "/>
  <polygon class="fil3" points="0.85594,20.9487 0.8824,20.9751 "/>
  <path class="fil1" d="M3.23719 20.9487l0.02646 0.02645 -0.02646 -0.02645m3.65125 0l0.02646 0.02645 -0.02646 -0.02645z"/>
  <polygon class="fil3" points="0.8824,20.9751 0.90885,21.0016 "/>
  <polygon class="fil1" points="3.21073,20.9751 3.23719,21.0016 "/>
  <path class="fil3" d="M6.9149 20.9751l0.02645 0.02646 -0.02645 -0.02646m2.96333 0l0.02646 0.02646 -0.02646 -0.02646z"/>
  <polygon class="fil2" points="0.90885,21.0016 0.93531,21.028 "/>
  <path class="fil1" d="M3.18427 21.0016l0.02646 0.02646 -0.02646 -0.02646m3.73063 0l0.02645 0.02646 -0.02645 -0.02646z"/>
  <path class="fil2" d="M9.87823 21.0016l0.02646 0.02646 -0.02646 -0.02646m-8.94292 0.02646l0.02646 0.02646 -0.02646 -0.02646z"/>
  <polygon class="fil1" points="3.15781,21.028 3.18427,21.0545 "/>
  <polygon class="fil2" points="6.94135,21.028 6.96781,21.0545 "/>
  <polygon class="fil3" points="9.85177,21.028 9.87823,21.0545 "/>
  <polygon class="fil1" points="0.96177,21.0545 0.98823,21.0809 "/>
  <polygon class="fil2" points="3.13135,21.0545 3.15781,21.0809 "/>
  <polygon class="fil3" points="6.96781,21.0545 6.99427,21.0809 "/>
  <polygon class="fil2" points="9.85177,21.0545 9.87823,21.0809 "/>
  <polygon class="fil1" points="0.98823,21.0809 1.01469,21.1074 "/>
  <polygon class="fil2" points="3.1049,21.0809 3.13135,21.1074 "/>
  <polygon class="fil1" points="6.96781,21.0809 6.99427,21.1074 "/>
  <polygon class="fil2" points="9.82531,21.0809 9.85177,21.1074 "/>
  <polygon class="fil1" points="6.99427,21.1074 7.02073,21.1339 "/>
  <polygon class="fil2" points="9.79885,21.1074 9.82531,21.1339 "/>
  <polygon class="fil3" points="1.0676,21.1339 1.09406,21.1603 "/>
  <polygon class="fil1" points="3.07844,21.1339 3.1049,21.1603 "/>
  <polygon class="fil3" points="7.02073,21.1339 7.04719,21.1603 "/>
  <polygon class="fil2" points="9.7724,21.1339 9.79885,21.1603 "/>
  <polygon class="fil3" points="1.09406,21.1603 1.12052,21.1868 "/>
  <path class="fil1" d="M3.05198 21.1603l0.02646 0.02646 -0.02646 -0.02646m3.96875 0l0.02646 0.02646 -0.02646 -0.02646z"/>
  <polygon class="fil3" points="9.74594,21.1603 9.7724,21.1868 "/>
  <polygon class="fil2" points="1.12052,21.1868 1.14698,21.2132 "/>
  <path class="fil1" d="M7.04719 21.1868l0.02646 0.02646 -0.02646 -0.02646m-5.90021 0.02646l0.02646 0.02646 -0.02646 -0.02646z"/>
  <polygon class="fil2" points="2.94615,21.2132 2.9726,21.2397 "/>
  <polygon class="fil3" points="7.07365,21.2132 7.1001,21.2397 "/>
  <path class="fil1" d="M9.71948 21.2132l0.02646 0.02646 -0.02646 -0.02646m-8.54604 0.02646l0.02646 0.02646 -0.02646 -0.02646z"/>
  <polygon class="fil2" points="2.86677,21.2397 2.89323,21.2662 "/>
  <polygon class="fil2" points="7.1001,21.2662 7.12656,21.2926 "/>
  <polygon class="fil3" points="9.6401,21.2662 9.66656,21.2926 "/>
  <polygon class="fil1" points="1.27927,21.2926 1.30573,21.3191 "/>
  <path class="fil3" d="M1.30573 21.2926l0.02646 0.02646 -0.02646 -0.02646m1.34937 0l0.02646 0.02646 -0.02646 -0.02646z"/>
  <path class="fil3" d="M7.12656 21.2926l0.02646 0.02646 -0.02646 -0.02646m2.48709 0l0.02645 0.02646 -0.02645 -0.02646z"/>
  <polygon class="fil1" points="1.33219,21.3191 1.35865,21.3455 "/>
  <polygon class="fil1" points="7.12656,21.3191 7.15302,21.3455 "/>
  <polygon class="fil2" points="1.43802,21.372 1.46448,21.3984 "/>
  <polygon class="fil2" points="7.17948,21.372 7.20594,21.3984 "/>
  <path class="fil1" d="M9.53427 21.372l0.02646 0.02646 -0.02646 -0.02646m-8.06979 0.02646l0.02646 0.02646 -0.02646 -0.02646z"/>
  <polygon class="fil3" points="7.20594,21.3984 7.2324,21.4249 "/>
  <polygon class="fil3" points="7.2324,21.4249 7.25885,21.4514 "/>
  <polygon class="fil1" points="9.48135,21.4249 9.50781,21.4514 "/>
  <polygon class="fil2" points="7.25885,21.4514 7.28531,21.4778 "/>
  <path class="fil3" d="M7.36469 21.5307l0.02646 0.02646 -0.02646 -0.02646m1.98437 0l0.02646 0.02646 -0.02646 -0.02646z"/>
  <polygon class="fil1" points="9.37552,21.5307 9.40198,21.5572 "/>
  <polygon class="fil2" points="7.39115,21.5572 7.4176,21.5837 "/>
  <polygon class="fil3" points="9.3226,21.5572 9.34906,21.5837 "/>
  <polygon class="fil1" points="7.4176,21.5837 7.44406,21.6101 "/>
  <polygon class="fil2" points="9.29615,21.5837 9.3226,21.6101 "/>
  <polygon class="fil1" points="7.44406,21.6101 7.47052,21.6366 "/>
  <polygon class="fil2" points="7.47052,21.6101 7.49698,21.6366 "/>
  <path class="fil1" d="M9.26969 21.6101l0.02646 0.02646 -0.02646 -0.02646m-1.77271 0.02646l0.02646 0.02646 -0.02646 -0.02646z"/>
  <path class="fil3" d="M7.52344 21.6366l0.02646 0.02646 -0.02646 -0.02646m1.64041 0l0.02646 0.02646 -0.02646 -0.02646z"/>
  <polygon class="fil2" points="7.5499,21.663 7.57635,21.6895 "/>
  <polygon class="fil3" points="9.11094,21.663 9.1374,21.6895 "/>
  <polygon class="fil1" points="9.1374,21.663 9.16385,21.6895 "/>
  <polygon class="fil2" points="7.60281,21.6895 7.62927,21.7159 "/>
  <polygon class="fil3" points="9.05802,21.6895 9.08448,21.7159 "/>
  <path class="fil3" d="M7.68219 21.7159l0.02646 0.02646 -0.02646 -0.02646m1.29646 0l0.02645 0.02646 -0.02645 -0.02646z"/>
  <path class="fil3" d="M7.76156 21.7424l0.02646 0.02645 -0.02646 -0.02645m1.11125 0l0.02646 0.02645 -0.02646 -0.02645z"/>
  <polygon class="fil3" points="8.52885,21.7689 8.55531,21.7953 "/>
  <polygon class="fil2" points="8.47594,21.7953 8.5024,21.8218 "/>
 </g>
</svg>
