<svg xmlns="http://www.w3.org/2000/svg" xmlns:xlink="http://www.w3.org/1999/xlink" width="50" height="50" viewBox="0 0 50 50">
  <defs>
    <clipPath id="clip-path">
      <rect id="Прямоугольник_15" data-name="Прямоугольник 15" width="28" height="28" transform="translate(434 86)" fill="#fff" stroke="#707070" stroke-width="1"/>
    </clipPath>
  </defs>
  <g id="Сгруппировать_170" data-name="Сгруппировать 170" transform="translate(-423 -75)">
    <circle id="Эллипс_4" data-name="Эллипс 4" cx="25" cy="25" r="25" transform="translate(423 75)" fill="#ff3b30"/>
    <g id="Группа_масок_153" data-name="Группа масок 153" clip-path="url(#clip-path)">
      <path id="Контур_23" data-name="Контур 23" d="M25.591,1.815a1.984,1.984,0,0,0-1.417-.572,2.5,2.5,0,0,0-1.7.71L20.441,3.6l-.079.072a1.924,1.924,0,0,0-.517,1.712l-4.732,4.6-.794-.687c.569-2.226.5-5.192-1.421-7.112A7.164,7.164,0,0,0,7.834,0,6.621,6.621,0,0,0,5.661.367a1.035,1.035,0,0,0-.455,1.642L7.757,5.057,7.631,7.018l-2.12.242L2.486,4.728a1.035,1.035,0,0,0-1.643.455c-.827,2.387-.1,4.958,2,7.053a6.464,6.464,0,0,0,4.7,1.727c.142,0,.286-.007.43-.014-.072.063-.145.125-.213.193L1.946,19.957a4.144,4.144,0,0,0,0,5.855l.975.975a4.14,4.14,0,0,0,5.855,0l5.814-5.814a4.031,4.031,0,0,0,.767-1.071l5.164,5.967c.017.019.034.037.051.055a3.411,3.411,0,0,0,2.447.9,4.681,4.681,0,0,0,3.217-1.247c1.353-1.353,1.78-4.232.349-5.664-.018-.018-.036-.035-.055-.05l-7.519-6.506L23.35,8.887a2.13,2.13,0,0,0,.359.03,1.893,1.893,0,0,0,1.351-.546L26.78,6.263a2.524,2.524,0,0,0,.7-1.467,2.016,2.016,0,0,0-.559-1.653ZM13.127,19.51,7.313,25.324a2.071,2.071,0,0,1-2.928,0l-.975-.975a2.072,2.072,0,0,1,0-2.927l5.814-5.815A2.056,2.056,0,0,1,10.687,15a2.117,2.117,0,0,1,.476.057l2.566,2.965A2.061,2.061,0,0,1,13.127,19.51Zm11.647,4.6a2.622,2.622,0,0,1-1.754.641,1.492,1.492,0,0,1-.964-.272L11.082,11.8a1.035,1.035,0,0,0-1.113-.3,7.7,7.7,0,0,1-2.426.4A4.522,4.522,0,0,1,4.3,10.773a5.574,5.574,0,0,1-1.71-3.254L4.523,9.132a1.034,1.034,0,0,0,.782.235l3.421-.391a1.034,1.034,0,0,0,.915-.962l.207-3.237a1.034,1.034,0,0,0-.239-.73L7.957,2.072a5.134,5.134,0,0,1,3.477,1.572c1.352,1.352,1.322,3.884.723,5.665a1.035,1.035,0,0,0,.3,1.113L25.141,21.4A2.391,2.391,0,0,1,24.773,24.111Zm.5-19.269L23.651,6.833a.37.37,0,0,1-.057-.028l-.7-.417L17.445,12l-.761-.659,5.661-5.5-.417-.7a.381.381,0,0,1-.028-.057L23.812,3.53l.079-.072a.463.463,0,0,1,.27-.144L25.42,4.573A.47.47,0,0,1,25.275,4.842Z" transform="translate(434 86)" fill="#fff"/>
    </g>
  </g>
</svg>
